<svg width="373" height="646" viewBox="0 0 373 646" fill="none" xmlns="http://www.w3.org/2000/svg">
<g filter="url(#filter0_d_67_6755)">
<rect x="19" y="6.30322" width="335" height="607" rx="10" fill="white"/>
<g clip-path="url(#clip0_67_6755)">
<path d="M162.38 70.3032V56.0032H172.04V59.1832H166.5V62.2232H170.92V65.2432H166.5V70.3032H162.38ZM174.062 70.3032V56.0032H179.662C181.542 56.0032 182.982 56.3899 183.982 57.1632C184.982 57.9232 185.482 59.0499 185.482 60.5432V60.6232C185.482 62.4632 184.622 63.7166 182.902 64.3832L186.322 70.3032H182.002L179.102 65.1832H178.142V70.3032H174.062ZM178.142 62.5232H179.462C180.835 62.5232 181.522 61.9432 181.522 60.7832V60.7032C181.522 59.6232 180.842 59.0832 179.482 59.0832H178.142V62.5232ZM188.107 70.3032V56.0032H197.987V59.1632H192.187V61.6232H196.807V64.5432H192.187V67.1432H198.307V70.3032H188.107ZM200.453 70.3032V56.0032H210.333V59.1632H204.533V61.6232H209.153V64.5432H204.533V67.1432H210.653V70.3032H200.453Z" fill="#252B42"/>
<g clip-path="url(#clip1_67_6755)">
<path d="M119.133 96.2952C120.392 96.2952 121.389 95.8632 122.125 94.9992C122.872 94.1352 123.245 93.0046 123.245 91.6072V91.4792C123.245 90.1459 122.872 89.0419 122.125 88.1672C121.389 87.2819 120.381 86.8392 119.101 86.8392C117.8 86.8392 116.776 87.2712 116.029 88.1352C115.282 88.9992 114.909 90.1246 114.909 91.5112V91.6392C114.909 93.0046 115.309 94.1246 116.109 94.9992C116.92 95.8632 117.928 96.2952 119.133 96.2952ZM119.133 97.4472C117.469 97.4472 116.109 96.8926 115.053 95.7832C113.997 94.6632 113.469 93.2872 113.469 91.6552V91.5272C113.469 89.8739 113.992 88.4926 115.037 87.3832C116.093 86.2739 117.448 85.7192 119.101 85.7192C120.754 85.7192 122.098 86.2739 123.133 87.3832C124.168 88.4819 124.685 89.8526 124.685 91.4952V91.6232C124.685 93.2659 124.168 94.6472 123.133 95.7672C122.098 96.8872 120.765 97.4472 119.133 97.4472ZM127.002 97.3032V88.9352H128.33V90.4392C128.618 89.9166 128.97 89.5166 129.386 89.2392C129.812 88.9619 130.378 88.8126 131.082 88.7912V90.0392C130.164 90.0819 129.476 90.2952 129.018 90.6792C128.559 91.0632 128.33 91.7406 128.33 92.7112V97.3032H127.002ZM136.227 100.359C135.064 100.359 134.168 100.119 133.539 99.6392C132.92 99.1699 132.552 98.5512 132.435 97.7832H133.795C133.987 98.7539 134.792 99.2392 136.211 99.2392C137.064 99.2392 137.726 99.0259 138.195 98.5992C138.664 98.1832 138.899 97.5379 138.899 96.6632V95.4472C138.643 95.8846 138.254 96.2579 137.731 96.5672C137.208 96.8766 136.654 97.0312 136.067 97.0312C134.968 97.0312 134.056 96.6579 133.331 95.9112C132.616 95.1646 132.259 94.2152 132.259 93.0632V92.9512C132.259 91.7886 132.627 90.8072 133.363 90.0072C134.099 89.1966 135.032 88.7912 136.163 88.7912C137.4 88.7912 138.312 89.2872 138.899 90.2792V88.9352H140.227V96.7432C140.216 97.9272 139.848 98.8232 139.123 99.4312C138.398 100.05 137.432 100.359 136.227 100.359ZM136.211 95.9272C137.011 95.9272 137.667 95.6659 138.179 95.1432C138.691 94.6099 138.947 93.8846 138.947 92.9672V92.8552C138.947 91.9272 138.707 91.2019 138.227 90.6792C137.758 90.1566 137.112 89.8952 136.291 89.8952C135.47 89.8952 134.819 90.1726 134.339 90.7272C133.87 91.2712 133.635 91.9912 133.635 92.8872V93.0152C133.635 93.9006 133.88 94.6099 134.371 95.1432C134.872 95.6659 135.486 95.9272 136.211 95.9272ZM145.11 97.4472C144.289 97.4472 143.617 97.2446 143.094 96.8392C142.582 96.4232 142.326 95.8046 142.326 94.9832C142.326 94.0872 142.721 93.4312 143.51 93.0152C144.31 92.5992 145.313 92.3912 146.518 92.3912H147.718V91.7832C147.718 91.1112 147.58 90.6312 147.302 90.3432C147.025 90.0446 146.566 89.8952 145.926 89.8952C144.774 89.8952 144.134 90.3966 144.006 91.3992H142.678C142.764 90.5032 143.116 89.8472 143.734 89.4312C144.353 89.0046 145.105 88.7912 145.99 88.7912C148.028 88.7912 149.046 89.7886 149.046 91.7832V97.3032H147.718V96.2472C147.078 97.0472 146.209 97.4472 145.11 97.4472ZM145.238 96.3912C145.964 96.3912 146.556 96.2152 147.014 95.8632C147.484 95.5006 147.718 95.0046 147.718 94.3752V93.3352H146.566C144.625 93.3352 143.654 93.8846 143.654 94.9832C143.654 95.9219 144.182 96.3912 145.238 96.3912ZM151.755 97.3032V88.9352H153.083V90.2632C153.286 89.8366 153.622 89.4846 154.091 89.2072C154.56 88.9299 155.12 88.7912 155.771 88.7912C156.688 88.7912 157.408 89.0632 157.931 89.6072C158.454 90.1512 158.715 91.0046 158.715 92.1672V97.3032H157.387V92.0712C157.387 91.3352 157.227 90.7966 156.907 90.4552C156.587 90.1139 156.091 89.9432 155.419 89.9432C154.768 89.9432 154.214 90.1459 153.755 90.5512C153.307 90.9566 153.083 91.5166 153.083 92.2312V97.3032H151.755ZM161.449 97.3032V88.9352H162.777V97.3032H161.449ZM162.697 86.9352C162.527 87.1059 162.324 87.1912 162.089 87.1912C161.855 87.1912 161.647 87.1059 161.465 86.9352C161.295 86.7646 161.209 86.5566 161.209 86.3112C161.209 86.0659 161.295 85.8579 161.465 85.6872C161.647 85.5166 161.855 85.4312 162.089 85.4312C162.324 85.4312 162.527 85.5166 162.697 85.6872C162.879 85.8579 162.969 86.0659 162.969 86.3112C162.969 86.5566 162.879 86.7646 162.697 86.9352ZM164.588 97.3032V97.1112L169.532 90.0552H165.068V88.9352H171.58V89.1752L166.748 96.1352H171.516V97.3032H164.588ZM176.776 97.4472C175.581 97.4472 174.605 97.0632 173.848 96.2952C173.101 95.5166 172.728 94.4872 172.728 93.2072V93.0792C172.728 91.8206 173.09 90.7912 173.816 89.9912C174.552 89.1912 175.496 88.7912 176.648 88.7912C177.714 88.7912 178.605 89.1379 179.32 89.8312C180.045 90.5139 180.408 91.5539 180.408 92.9512V93.3832H174.104C174.136 94.3432 174.376 95.0792 174.824 95.5912C175.282 96.0926 175.938 96.3432 176.792 96.3432C178.104 96.3432 178.845 95.8579 179.016 94.8872H180.344C180.205 95.7086 179.816 96.3432 179.176 96.7912C178.536 97.2286 177.736 97.4472 176.776 97.4472ZM174.152 92.3112H179.048C178.93 90.7006 178.13 89.8952 176.648 89.8952C175.976 89.8952 175.421 90.1139 174.984 90.5512C174.546 90.9779 174.269 91.5646 174.152 92.3112ZM188.976 97.4472C188.155 97.4472 187.483 97.2446 186.96 96.8392C186.448 96.4232 186.192 95.8046 186.192 94.9832C186.192 94.0872 186.587 93.4312 187.376 93.0152C188.176 92.5992 189.179 92.3912 190.384 92.3912H191.584V91.7832C191.584 91.1112 191.445 90.6312 191.168 90.3432C190.891 90.0446 190.432 89.8952 189.792 89.8952C188.64 89.8952 188 90.3966 187.872 91.3992H186.544C186.629 90.5032 186.981 89.8472 187.6 89.4312C188.219 89.0046 188.971 88.7912 189.856 88.7912C191.893 88.7912 192.912 89.7886 192.912 91.7832V97.3032H191.584V96.2472C190.944 97.0472 190.075 97.4472 188.976 97.4472ZM189.104 96.3912C189.829 96.3912 190.421 96.2152 190.88 95.8632C191.349 95.5006 191.584 95.0046 191.584 94.3752V93.3352H190.432C188.491 93.3352 187.52 93.8846 187.52 94.9832C187.52 95.9219 188.048 96.3912 189.104 96.3912ZM199.093 97.4472C197.909 97.4472 196.927 97.0632 196.149 96.2952C195.381 95.5166 194.997 94.4872 194.997 93.2072V93.0792C194.997 91.8206 195.386 90.7912 196.165 89.9912C196.954 89.1912 197.919 88.7912 199.061 88.7912C200.021 88.7912 200.837 89.0312 201.509 89.5112C202.181 89.9806 202.575 90.7166 202.693 91.7192H201.381C201.189 90.5032 200.415 89.8952 199.061 89.8952C198.282 89.8952 197.637 90.1886 197.125 90.7752C196.623 91.3512 196.373 92.1192 196.373 93.0792V93.2072C196.373 94.2099 196.618 94.9832 197.109 95.5272C197.61 96.0712 198.277 96.3432 199.109 96.3432C199.738 96.3432 200.277 96.1672 200.725 95.8152C201.183 95.4526 201.445 94.9459 201.509 94.2952H202.741C202.655 95.2126 202.271 95.9699 201.589 96.5672C200.917 97.1539 200.085 97.4472 199.093 97.4472ZM204.846 97.3032V88.9352H206.174V90.4392C206.462 89.9166 206.814 89.5166 207.23 89.2392C207.656 88.9619 208.222 88.8126 208.926 88.7912V90.0392C208.008 90.0819 207.32 90.2952 206.862 90.6792C206.403 91.0632 206.174 91.7406 206.174 92.7112V97.3032H204.846ZM214.215 96.3432C215.047 96.3432 215.708 96.0552 216.199 95.4792C216.7 94.9032 216.951 94.1406 216.951 93.1912V93.0792C216.951 92.1086 216.7 91.3352 216.199 90.7592C215.708 90.1832 215.047 89.8952 214.215 89.8952C213.372 89.8952 212.705 90.1832 212.215 90.7592C211.724 91.3352 211.479 92.1032 211.479 93.0632V93.1912C211.479 94.1512 211.724 94.9192 212.215 95.4952C212.705 96.0606 213.372 96.3432 214.215 96.3432ZM214.199 97.4472C213.015 97.4472 212.033 97.0472 211.255 96.2472C210.487 95.4366 210.103 94.4179 210.103 93.1912V93.0632C210.103 91.8152 210.487 90.7912 211.255 89.9912C212.033 89.1912 213.02 88.7912 214.215 88.7912C215.409 88.7912 216.391 89.1912 217.159 89.9912C217.937 90.7806 218.327 91.7992 218.327 93.0472V93.1752C218.327 94.4339 217.937 95.4632 217.159 96.2632C216.38 97.0526 215.393 97.4472 214.199 97.4472ZM223.075 97.4472C222.072 97.4472 221.283 97.2072 220.707 96.7272C220.142 96.2472 219.838 95.5806 219.795 94.7272H221.091C221.198 95.8046 221.854 96.3432 223.059 96.3432C224.275 96.3432 224.883 95.9006 224.883 95.0152C224.883 94.5992 224.728 94.2952 224.419 94.1032C224.12 93.9006 223.624 93.7352 222.931 93.6072C221.843 93.4046 221.086 93.1272 220.659 92.7752C220.232 92.4126 220.019 91.8686 220.019 91.1432C220.019 90.4179 220.307 89.8472 220.883 89.4312C221.47 89.0046 222.126 88.7912 222.851 88.7912C224.664 88.7912 225.672 89.5966 225.875 91.2072H224.595C224.499 90.7486 224.312 90.4179 224.035 90.2152C223.758 90.0019 223.358 89.8952 222.835 89.8952C222.355 89.8952 221.971 90.0072 221.683 90.2312C221.395 90.4446 221.251 90.7326 221.251 91.0952C221.251 91.4792 221.384 91.7619 221.651 91.9432C221.928 92.1246 222.446 92.2846 223.203 92.4232C223.704 92.5192 224.104 92.6152 224.403 92.7112C224.712 92.7966 225.011 92.9299 225.299 93.1112C225.598 93.2926 225.811 93.5326 225.939 93.8312C226.078 94.1192 226.147 94.4766 226.147 94.9032C226.147 95.6819 225.88 96.3006 225.347 96.7592C224.824 97.2179 224.067 97.4472 223.075 97.4472ZM230.863 97.4472C229.86 97.4472 229.071 97.2072 228.495 96.7272C227.929 96.2472 227.625 95.5806 227.583 94.7272H228.879C228.985 95.8046 229.641 96.3432 230.847 96.3432C232.063 96.3432 232.671 95.9006 232.671 95.0152C232.671 94.5992 232.516 94.2952 232.207 94.1032C231.908 93.9006 231.412 93.7352 230.719 93.6072C229.631 93.4046 228.873 93.1272 228.447 92.7752C228.02 92.4126 227.807 91.8686 227.807 91.1432C227.807 90.4179 228.095 89.8472 228.671 89.4312C229.257 89.0046 229.913 88.7912 230.639 88.7912C232.452 88.7912 233.46 89.5966 233.663 91.2072H232.383C232.287 90.7486 232.1 90.4179 231.823 90.2152C231.545 90.0019 231.145 89.8952 230.623 89.8952C230.143 89.8952 229.759 90.0072 229.471 90.2312C229.183 90.4446 229.039 90.7326 229.039 91.0952C229.039 91.4792 229.172 91.7619 229.439 91.9432C229.716 92.1246 230.233 92.2846 230.991 92.4232C231.492 92.5192 231.892 92.6152 232.191 92.7112C232.5 92.7966 232.799 92.9299 233.087 93.1112C233.385 93.2926 233.599 93.5326 233.727 93.8312C233.865 94.1192 233.935 94.4766 233.935 94.9032C233.935 95.6819 233.668 96.3006 233.135 96.7592C232.612 97.2179 231.855 97.4472 230.863 97.4472ZM242.488 97.4472C241.667 97.4472 240.995 97.2446 240.472 96.8392C239.96 96.4232 239.704 95.8046 239.704 94.9832C239.704 94.0872 240.099 93.4312 240.888 93.0152C241.688 92.5992 242.691 92.3912 243.896 92.3912H245.096V91.7832C245.096 91.1112 244.958 90.6312 244.68 90.3432C244.403 90.0446 243.944 89.8952 243.304 89.8952C242.152 89.8952 241.512 90.3966 241.384 91.3992H240.056C240.142 90.5032 240.494 89.8472 241.112 89.4312C241.731 89.0046 242.483 88.7912 243.368 88.7912C245.406 88.7912 246.424 89.7886 246.424 91.7832V97.3032H245.096V96.2472C244.456 97.0472 243.587 97.4472 242.488 97.4472ZM242.616 96.3912C243.342 96.3912 243.934 96.2152 244.392 95.8632C244.862 95.5006 245.096 95.0046 245.096 94.3752V93.3352H243.944C242.003 93.3352 241.032 93.8846 241.032 94.9832C241.032 95.9219 241.56 96.3912 242.616 96.3912ZM249.165 97.3032V84.9352H250.509V97.3032H249.165ZM253.359 97.3032V84.9352H254.703V97.3032H253.359ZM138.89 120.447C138.069 120.447 137.397 120.245 136.874 119.839C136.362 119.423 136.106 118.805 136.106 117.983C136.106 117.087 136.501 116.431 137.29 116.015C138.09 115.599 139.093 115.391 140.298 115.391H141.498V114.783C141.498 114.111 141.359 113.631 141.082 113.343C140.805 113.045 140.346 112.895 139.706 112.895C138.554 112.895 137.914 113.397 137.786 114.399H136.458C136.543 113.503 136.895 112.847 137.514 112.431C138.133 112.005 138.885 111.791 139.77 111.791C141.807 111.791 142.826 112.789 142.826 114.783V120.303H141.498V119.247C140.858 120.047 139.989 120.447 138.89 120.447ZM139.018 119.391C139.743 119.391 140.335 119.215 140.794 118.863C141.263 118.501 141.498 118.005 141.498 117.375V116.335H140.346C138.405 116.335 137.434 116.885 137.434 117.983C137.434 118.922 137.962 119.391 139.018 119.391ZM145.535 123.215V111.935H146.863V113.343C147.119 112.917 147.508 112.554 148.031 112.255C148.553 111.946 149.108 111.791 149.695 111.791C150.815 111.791 151.727 112.175 152.431 112.943C153.145 113.701 153.503 114.719 153.503 115.999V116.127C153.503 117.418 153.151 118.463 152.447 119.263C151.753 120.053 150.836 120.447 149.695 120.447C149.044 120.447 148.473 120.309 147.983 120.031C147.492 119.743 147.119 119.375 146.863 118.927V123.215H145.535ZM149.567 119.343C150.399 119.343 151.033 119.071 151.471 118.527C151.908 117.983 152.127 117.205 152.127 116.191V116.063C152.127 115.05 151.881 114.271 151.391 113.727C150.911 113.173 150.297 112.895 149.551 112.895C148.74 112.895 148.079 113.167 147.567 113.711C147.065 114.245 146.815 115.029 146.815 116.063V116.191C146.815 117.226 147.06 118.01 147.551 118.543C148.052 119.077 148.724 119.343 149.567 119.343ZM155.666 123.215V111.935H156.994V113.343C157.25 112.917 157.639 112.554 158.162 112.255C158.685 111.946 159.239 111.791 159.826 111.791C160.946 111.791 161.858 112.175 162.562 112.943C163.277 113.701 163.634 114.719 163.634 115.999V116.127C163.634 117.418 163.282 118.463 162.578 119.263C161.885 120.053 160.967 120.447 159.826 120.447C159.175 120.447 158.605 120.309 158.114 120.031C157.623 119.743 157.25 119.375 156.994 118.927V123.215H155.666ZM159.698 119.343C160.53 119.343 161.165 119.071 161.602 118.527C162.039 117.983 162.258 117.205 162.258 116.191V116.063C162.258 115.05 162.013 114.271 161.522 113.727C161.042 113.173 160.429 112.895 159.682 112.895C158.871 112.895 158.21 113.167 157.698 113.711C157.197 114.245 156.946 115.029 156.946 116.063V116.191C156.946 117.226 157.191 118.01 157.682 118.543C158.183 119.077 158.855 119.343 159.698 119.343ZM168.389 120.447C167.386 120.447 166.597 120.207 166.021 119.727C165.456 119.247 165.152 118.581 165.109 117.727H166.405C166.512 118.805 167.168 119.343 168.373 119.343C169.589 119.343 170.197 118.901 170.197 118.015C170.197 117.599 170.042 117.295 169.733 117.103C169.434 116.901 168.938 116.735 168.245 116.607C167.157 116.405 166.4 116.127 165.973 115.775C165.546 115.413 165.333 114.869 165.333 114.143C165.333 113.418 165.621 112.847 166.197 112.431C166.784 112.005 167.44 111.791 168.165 111.791C169.978 111.791 170.986 112.597 171.189 114.207H169.909C169.813 113.749 169.626 113.418 169.349 113.215C169.072 113.002 168.672 112.895 168.149 112.895C167.669 112.895 167.285 113.007 166.997 113.231C166.709 113.445 166.565 113.733 166.565 114.095C166.565 114.479 166.698 114.762 166.965 114.943C167.242 115.125 167.76 115.285 168.517 115.423C169.018 115.519 169.418 115.615 169.717 115.711C170.026 115.797 170.325 115.93 170.613 116.111C170.912 116.293 171.125 116.533 171.253 116.831C171.392 117.119 171.461 117.477 171.461 117.903C171.461 118.682 171.194 119.301 170.661 119.759C170.138 120.218 169.381 120.447 168.389 120.447ZM182.079 120.447C181.428 120.447 180.858 120.309 180.367 120.031C179.876 119.743 179.503 119.375 179.247 118.927V120.303H177.919V107.935H179.247V113.343C179.503 112.917 179.892 112.554 180.415 112.255C180.938 111.946 181.492 111.791 182.079 111.791C183.199 111.791 184.111 112.175 184.815 112.943C185.53 113.701 185.887 114.719 185.887 115.999V116.127C185.887 117.418 185.535 118.463 184.831 119.263C184.138 120.053 183.22 120.447 182.079 120.447ZM181.951 119.343C182.783 119.343 183.418 119.071 183.855 118.527C184.292 117.983 184.511 117.205 184.511 116.191V116.063C184.511 115.05 184.266 114.271 183.775 113.727C183.295 113.173 182.682 112.895 181.935 112.895C181.124 112.895 180.463 113.167 179.951 113.711C179.45 114.245 179.199 115.029 179.199 116.063V116.191C179.199 117.226 179.444 118.01 179.935 118.543C180.436 119.077 181.108 119.343 181.951 119.343ZM188.646 123.215L190.23 119.439L186.95 111.935H188.374L190.934 117.935L193.254 111.935H194.614L189.99 123.215H188.646ZM200.797 120.303V107.935H202.125V113.263C202.328 112.837 202.664 112.485 203.133 112.207C203.602 111.93 204.162 111.791 204.813 111.791C205.73 111.791 206.45 112.063 206.973 112.607C207.496 113.151 207.757 114.005 207.757 115.167V120.303H206.429V115.071C206.429 114.335 206.269 113.797 205.949 113.455C205.629 113.114 205.133 112.943 204.461 112.943C203.81 112.943 203.256 113.146 202.797 113.551C202.349 113.957 202.125 114.517 202.125 115.231V120.303H200.797ZM212.556 120.447C211.734 120.447 211.062 120.245 210.54 119.839C210.028 119.423 209.772 118.805 209.772 117.983C209.772 117.087 210.166 116.431 210.956 116.015C211.756 115.599 212.758 115.391 213.964 115.391H215.164V114.783C215.164 114.111 215.025 113.631 214.748 113.343C214.47 113.045 214.012 112.895 213.372 112.895C212.22 112.895 211.58 113.397 211.452 114.399H210.124C210.209 113.503 210.561 112.847 211.18 112.431C211.798 112.005 212.55 111.791 213.436 111.791C215.473 111.791 216.492 112.789 216.492 114.783V120.303H215.164V119.247C214.524 120.047 213.654 120.447 212.556 120.447ZM212.684 119.391C213.409 119.391 214.001 119.215 214.46 118.863C214.929 118.501 215.164 118.005 215.164 117.375V116.335H214.012C212.07 116.335 211.1 116.885 211.1 117.983C211.1 118.922 211.628 119.391 212.684 119.391ZM219.2 120.303V111.935H220.528V113.263C220.731 112.837 221.067 112.485 221.536 112.207C222.006 111.93 222.566 111.791 223.216 111.791C224.134 111.791 224.854 112.063 225.376 112.607C225.899 113.151 226.16 114.005 226.16 115.167V120.303H224.832V115.071C224.832 114.335 224.672 113.797 224.352 113.455C224.032 113.114 223.536 112.943 222.864 112.943C222.214 112.943 221.659 113.146 221.2 113.551C220.752 113.957 220.528 114.517 220.528 115.231V120.303H219.2ZM232.015 120.447C230.895 120.447 229.983 120.074 229.279 119.327C228.585 118.581 228.239 117.567 228.239 116.287V116.159C228.239 114.879 228.601 113.834 229.327 113.023C230.052 112.202 230.991 111.791 232.143 111.791C233.38 111.791 234.292 112.287 234.879 113.279V107.935H236.207V120.303H234.879V118.863C234.623 119.29 234.228 119.663 233.695 119.983C233.161 120.293 232.601 120.447 232.015 120.447ZM232.159 119.343C232.98 119.343 233.647 119.077 234.159 118.543C234.671 117.999 234.927 117.21 234.927 116.175V116.047C234.927 115.002 234.692 114.218 234.223 113.695C233.764 113.162 233.113 112.895 232.271 112.895C231.439 112.895 230.788 113.178 230.319 113.743C229.849 114.298 229.615 115.082 229.615 116.095V116.223C229.615 117.237 229.849 118.01 230.319 118.543C230.799 119.077 231.412 119.343 232.159 119.343Z" fill="#374754"/>
</g>
</g>
<g clip-path="url(#clip2_67_6755)">
<g clip-path="url(#clip3_67_6755)">
<path d="M147.232 199.925C150.439 199.925 152.757 198.741 154.188 196.373C155.619 194.005 156.334 190.33 156.334 185.347V183.201C156.334 178.317 155.594 174.667 154.114 172.249C152.634 169.832 150.291 168.623 147.084 168.623C140.917 168.623 137.834 173.483 137.834 183.201V185.421C137.834 190.355 138.574 194.005 140.054 196.373C141.583 198.741 143.976 199.925 147.232 199.925ZM146.788 211.691C139.339 211.691 133.443 209.397 129.102 204.809C124.81 200.172 122.664 193.734 122.664 185.495V183.275C122.664 175.135 124.933 168.747 129.472 164.109C134.011 159.472 139.881 157.153 147.084 157.153C154.336 157.153 160.207 159.398 164.696 163.887C169.235 168.327 171.504 174.691 171.504 182.979V185.051C171.504 193.389 169.284 199.925 164.844 204.661C160.404 209.348 154.385 211.691 146.788 211.691Z" fill="#252B42"/>
</g>
<g clip-path="url(#clip4_67_6755)">
<g clip-path="url(#clip5_67_6755)">
<path d="M190.76 180.003V177.503C189.08 177.383 187.793 176.91 186.9 176.083C186.02 175.243 185.547 174.143 185.48 172.783H189.18C189.3 173.837 189.827 174.463 190.76 174.663V171.743C189 171.49 187.733 171.017 186.96 170.323C186.187 169.617 185.8 168.577 185.8 167.203C185.8 165.99 186.247 164.983 187.14 164.183C188.033 163.383 189.24 162.93 190.76 162.823V161.043H192.32V162.843C195.333 163.097 196.953 164.537 197.18 167.163H193.56C193.427 166.35 193.013 165.85 192.32 165.663V168.423C193.987 168.663 195.247 169.11 196.1 169.763C196.953 170.417 197.38 171.43 197.38 172.803C197.38 174.097 196.953 175.177 196.1 176.043C195.247 176.91 193.987 177.397 192.32 177.503V180.003H190.76ZM193.66 173.243C193.66 172.897 193.567 172.637 193.38 172.463C193.193 172.277 192.84 172.123 192.32 172.003V174.663C193.213 174.477 193.66 174.003 193.66 173.243ZM189.4 166.903C189.4 167.263 189.493 167.543 189.68 167.743C189.88 167.93 190.24 168.077 190.76 168.183V165.623C189.853 165.783 189.4 166.21 189.4 166.903Z" fill="#252B42"/>
</g>
<g clip-path="url(#clip6_67_6755)">
<path d="M186.44 201.303V189.863H189.688C190.872 189.863 191.832 190.141 192.568 190.695C193.315 191.239 193.688 192.077 193.688 193.207V193.271C193.688 194.423 193.315 195.277 192.568 195.831C191.832 196.375 190.872 196.647 189.688 196.647H187.832V201.303H186.44ZM187.832 195.543H189.784C190.595 195.543 191.213 195.351 191.64 194.967C192.077 194.573 192.296 194.007 192.296 193.271V193.207C192.296 191.725 191.459 190.983 189.784 190.983H187.832V195.543ZM198.931 201.447C197.736 201.447 196.76 201.063 196.003 200.295C195.256 199.517 194.883 198.487 194.883 197.207V197.079C194.883 195.821 195.245 194.791 195.971 193.991C196.707 193.191 197.651 192.791 198.803 192.791C199.869 192.791 200.76 193.138 201.475 193.831C202.2 194.514 202.563 195.554 202.563 196.951V197.383H196.259C196.291 198.343 196.531 199.079 196.979 199.591C197.437 200.093 198.093 200.343 198.947 200.343C200.259 200.343 201 199.858 201.171 198.887H202.499C202.36 199.709 201.971 200.343 201.331 200.791C200.691 201.229 199.891 201.447 198.931 201.447ZM196.307 196.311H201.203C201.085 194.701 200.285 193.895 198.803 193.895C198.131 193.895 197.576 194.114 197.139 194.551C196.701 194.978 196.424 195.565 196.307 196.311ZM204.7 201.303V192.935H206.028V194.439C206.316 193.917 206.668 193.517 207.084 193.239C207.511 192.962 208.076 192.813 208.78 192.791V194.039C207.863 194.082 207.175 194.295 206.716 194.679C206.258 195.063 206.028 195.741 206.028 196.711V201.303H204.7ZM215.246 201.303V189.863H217.182L220.718 198.775L224.142 189.863H226.062V201.303H224.67V191.671L220.878 201.303H220.446L216.526 191.671V201.303H215.246ZM232.441 200.343C233.273 200.343 233.935 200.055 234.425 199.479C234.927 198.903 235.177 198.141 235.177 197.191V197.079C235.177 196.109 234.927 195.335 234.425 194.759C233.935 194.183 233.273 193.895 232.441 193.895C231.599 193.895 230.932 194.183 230.441 194.759C229.951 195.335 229.705 196.103 229.705 197.063V197.191C229.705 198.151 229.951 198.919 230.441 199.495C230.932 200.061 231.599 200.343 232.441 200.343ZM232.425 201.447C231.241 201.447 230.26 201.047 229.481 200.247C228.713 199.437 228.329 198.418 228.329 197.191V197.063C228.329 195.815 228.713 194.791 229.481 193.991C230.26 193.191 231.247 192.791 232.441 192.791C233.636 192.791 234.617 193.191 235.385 193.991C236.164 194.781 236.553 195.799 236.553 197.047V197.175C236.553 198.434 236.164 199.463 235.385 200.263C234.607 201.053 233.62 201.447 232.425 201.447ZM238.71 201.303V192.935H240.038V194.263C240.24 193.837 240.576 193.485 241.046 193.207C241.515 192.93 242.075 192.791 242.726 192.791C243.643 192.791 244.363 193.063 244.886 193.607C245.408 194.151 245.67 195.005 245.67 196.167V201.303H244.342V196.071C244.342 195.335 244.182 194.797 243.862 194.455C243.542 194.114 243.046 193.943 242.374 193.943C241.723 193.943 241.168 194.146 240.71 194.551C240.262 194.957 240.038 195.517 240.038 196.231V201.303H238.71ZM250.916 201.415C250.18 201.415 249.62 201.218 249.236 200.823C248.852 200.429 248.66 199.89 248.66 199.207V194.055H247.46V192.935H248.66V191.031H249.988V192.935H251.94V194.055H249.988V199.079C249.988 199.89 250.335 200.295 251.028 200.295C251.412 200.295 251.753 200.237 252.052 200.119V201.239C251.721 201.357 251.343 201.415 250.916 201.415ZM254.16 201.303V188.935H255.488V194.263C255.69 193.837 256.026 193.485 256.496 193.207C256.965 192.93 257.525 192.791 258.176 192.791C259.093 192.791 259.813 193.063 260.336 193.607C260.858 194.151 261.12 195.005 261.12 196.167V201.303H259.792V196.071C259.792 195.335 259.632 194.797 259.312 194.455C258.992 194.114 258.496 193.943 257.824 193.943C257.173 193.943 256.618 194.146 256.16 194.551C255.712 194.957 255.488 195.517 255.488 196.231V201.303H254.16Z" fill="#374754"/>
</g>
</g>
</g>
<g clip-path="url(#clip7_67_6755)">
<path d="M133.35 276.303V265.578H136.395C137.505 265.578 138.405 265.838 139.095 266.358C139.795 266.868 140.145 267.653 140.145 268.713V268.773C140.145 269.853 139.795 270.653 139.095 271.173C138.405 271.683 137.505 271.938 136.395 271.938H134.655V276.303H133.35ZM134.655 270.903H136.485C137.245 270.903 137.825 270.723 138.225 270.363C138.635 269.993 138.84 269.463 138.84 268.773V268.713C138.84 267.323 138.055 266.628 136.485 266.628H134.655V270.903ZM142.176 276.303V268.458H143.421V269.868C143.691 269.378 144.021 269.003 144.411 268.743C144.811 268.483 145.341 268.343 146.001 268.323V269.493C145.141 269.533 144.496 269.733 144.066 270.093C143.636 270.453 143.421 271.088 143.421 271.998V276.303H142.176ZM148.045 276.303V268.458H149.29V276.303H148.045ZM149.215 266.583C149.055 266.743 148.865 266.823 148.645 266.823C148.425 266.823 148.23 266.743 148.06 266.583C147.9 266.423 147.82 266.228 147.82 265.998C147.82 265.768 147.9 265.573 148.06 265.413C148.23 265.253 148.425 265.173 148.645 265.173C148.865 265.173 149.055 265.253 149.215 265.413C149.385 265.573 149.47 265.768 149.47 265.998C149.47 266.228 149.385 266.423 149.215 266.583ZM155.294 276.438C154.184 276.438 153.264 276.078 152.534 275.358C151.814 274.628 151.454 273.663 151.454 272.463V272.343C151.454 271.163 151.819 270.198 152.549 269.448C153.289 268.698 154.194 268.323 155.264 268.323C156.164 268.323 156.929 268.548 157.559 268.998C158.189 269.438 158.559 270.128 158.669 271.068H157.439C157.259 269.928 156.534 269.358 155.264 269.358C154.534 269.358 153.929 269.633 153.449 270.183C152.979 270.723 152.744 271.443 152.744 272.343V272.463C152.744 273.403 152.974 274.128 153.434 274.638C153.904 275.148 154.529 275.403 155.309 275.403C155.899 275.403 156.404 275.238 156.824 274.908C157.254 274.568 157.499 274.093 157.559 273.483H158.714C158.634 274.343 158.274 275.053 157.634 275.613C157.004 276.163 156.224 276.438 155.294 276.438ZM160.823 276.303V268.458H162.068V276.303H160.823ZM161.993 266.583C161.833 266.743 161.643 266.823 161.423 266.823C161.203 266.823 161.008 266.743 160.838 266.583C160.678 266.423 160.598 266.228 160.598 265.998C160.598 265.768 160.678 265.573 160.838 265.413C161.008 265.253 161.203 265.173 161.423 265.173C161.643 265.173 161.833 265.253 161.993 265.413C162.163 265.573 162.248 265.768 162.248 265.998C162.248 266.228 162.163 266.423 161.993 266.583ZM164.817 276.303V268.458H166.062V269.703C166.252 269.303 166.567 268.973 167.007 268.713C167.447 268.453 167.972 268.323 168.582 268.323C169.442 268.323 170.117 268.578 170.607 269.088C171.097 269.598 171.342 270.398 171.342 271.488V276.303H170.097V271.398C170.097 270.708 169.947 270.203 169.647 269.883C169.347 269.563 168.882 269.403 168.252 269.403C167.642 269.403 167.122 269.593 166.692 269.973C166.272 270.353 166.062 270.878 166.062 271.548V276.303H164.817ZM177.116 279.168C176.026 279.168 175.186 278.943 174.596 278.493C174.016 278.053 173.671 277.473 173.561 276.753H174.836C175.016 277.663 175.771 278.118 177.101 278.118C177.901 278.118 178.521 277.918 178.961 277.518C179.401 277.128 179.621 276.523 179.621 275.703V274.563C179.381 274.973 179.016 275.323 178.526 275.613C178.036 275.903 177.516 276.048 176.966 276.048C175.936 276.048 175.081 275.698 174.401 274.998C173.731 274.298 173.396 273.408 173.396 272.328V272.223C173.396 271.133 173.741 270.213 174.431 269.463C175.121 268.703 175.996 268.323 177.056 268.323C178.216 268.323 179.071 268.788 179.621 269.718V268.458H180.866V275.778C180.856 276.888 180.511 277.728 179.831 278.298C179.151 278.878 178.246 279.168 177.116 279.168ZM177.101 275.013C177.851 275.013 178.466 274.768 178.946 274.278C179.426 273.778 179.666 273.098 179.666 272.238V272.133C179.666 271.263 179.441 270.583 178.991 270.093C178.551 269.603 177.946 269.358 177.176 269.358C176.406 269.358 175.796 269.618 175.346 270.138C174.906 270.648 174.686 271.323 174.686 272.163V272.283C174.686 273.113 174.916 273.778 175.376 274.278C175.846 274.768 176.421 275.013 177.101 275.013ZM187.846 276.303V265.578H194.116V266.643H189.151V270.438H193.021V271.503H189.151V276.303H187.846ZM198.9 276.438C197.78 276.438 196.865 276.078 196.155 275.358C195.455 274.628 195.105 273.663 195.105 272.463V272.343C195.105 271.163 195.445 270.198 196.125 269.448C196.815 268.698 197.7 268.323 198.78 268.323C199.78 268.323 200.615 268.648 201.285 269.298C201.965 269.938 202.305 270.913 202.305 272.223V272.628H196.395C196.425 273.528 196.65 274.218 197.07 274.698C197.5 275.168 198.115 275.403 198.915 275.403C200.145 275.403 200.84 274.948 201 274.038H202.245C202.115 274.808 201.75 275.403 201.15 275.823C200.55 276.233 199.8 276.438 198.9 276.438ZM196.44 271.623H201.03C200.92 270.113 200.17 269.358 198.78 269.358C198.15 269.358 197.63 269.563 197.22 269.973C196.81 270.373 196.55 270.923 196.44 271.623ZM206.454 276.438C205.684 276.438 205.054 276.248 204.564 275.868C204.084 275.478 203.844 274.898 203.844 274.128C203.844 273.288 204.214 272.673 204.954 272.283C205.704 271.893 206.644 271.698 207.774 271.698H208.899V271.128C208.899 270.498 208.769 270.048 208.509 269.778C208.249 269.498 207.819 269.358 207.219 269.358C206.139 269.358 205.539 269.828 205.419 270.768H204.174C204.254 269.928 204.584 269.313 205.164 268.923C205.744 268.523 206.449 268.323 207.279 268.323C209.189 268.323 210.144 269.258 210.144 271.128V276.303H208.899V275.313C208.299 276.063 207.484 276.438 206.454 276.438ZM206.574 275.448C207.254 275.448 207.809 275.283 208.239 274.953C208.679 274.613 208.899 274.148 208.899 273.558V272.583H207.819C205.999 272.583 205.089 273.098 205.089 274.128C205.089 275.008 205.584 275.448 206.574 275.448ZM215.174 276.408C214.484 276.408 213.959 276.223 213.599 275.853C213.239 275.483 213.059 274.978 213.059 274.338V269.508H211.934V268.458H213.059V266.673H214.304V268.458H216.134V269.508H214.304V274.218C214.304 274.978 214.629 275.358 215.279 275.358C215.639 275.358 215.959 275.303 216.239 275.193V276.243C215.929 276.353 215.574 276.408 215.174 276.408ZM220.976 276.438C220.146 276.438 219.481 276.193 218.981 275.703C218.491 275.213 218.246 274.453 218.246 273.423V268.458H219.491V273.363C219.491 274.053 219.636 274.558 219.926 274.878C220.226 275.198 220.686 275.358 221.306 275.358C221.896 275.358 222.401 275.168 222.821 274.788C223.251 274.408 223.466 273.883 223.466 273.213V268.458H224.711V276.303H223.466V275.058C223.276 275.458 222.961 275.788 222.521 276.048C222.091 276.308 221.576 276.438 220.976 276.438ZM227.427 276.303V268.458H228.672V269.868C228.942 269.378 229.272 269.003 229.662 268.743C230.062 268.483 230.592 268.343 231.252 268.323V269.493C230.392 269.533 229.747 269.733 229.317 270.093C228.887 270.453 228.672 271.088 228.672 271.998V276.303H227.427ZM236.257 276.438C235.137 276.438 234.222 276.078 233.512 275.358C232.812 274.628 232.462 273.663 232.462 272.463V272.343C232.462 271.163 232.802 270.198 233.482 269.448C234.172 268.698 235.057 268.323 236.137 268.323C237.137 268.323 237.972 268.648 238.642 269.298C239.322 269.938 239.662 270.913 239.662 272.223V272.628H233.752C233.782 273.528 234.007 274.218 234.427 274.698C234.857 275.168 235.472 275.403 236.272 275.403C237.502 275.403 238.197 274.948 238.357 274.038H239.602C239.472 274.808 239.107 275.403 238.507 275.823C237.907 276.233 237.157 276.438 236.257 276.438ZM233.797 271.623H238.387C238.277 270.113 237.527 269.358 236.137 269.358C235.507 269.358 234.987 269.563 234.577 269.973C234.167 270.373 233.907 270.923 233.797 271.623Z" fill="#252B42"/>
<path d="M133.35 324.303V313.578H136.395C137.505 313.578 138.405 313.838 139.095 314.358C139.795 314.868 140.145 315.653 140.145 316.713V316.773C140.145 317.853 139.795 318.653 139.095 319.173C138.405 319.683 137.505 319.938 136.395 319.938H134.655V324.303H133.35ZM134.655 318.903H136.485C137.245 318.903 137.825 318.723 138.225 318.363C138.635 317.993 138.84 317.463 138.84 316.773V316.713C138.84 315.323 138.055 314.628 136.485 314.628H134.655V318.903ZM142.176 324.303V316.458H143.421V317.868C143.691 317.378 144.021 317.003 144.411 316.743C144.811 316.483 145.341 316.343 146.001 316.323V317.493C145.141 317.533 144.496 317.733 144.066 318.093C143.636 318.453 143.421 319.088 143.421 319.998V324.303H142.176ZM148.045 324.303V316.458H149.29V324.303H148.045ZM149.215 314.583C149.055 314.743 148.865 314.823 148.645 314.823C148.425 314.823 148.23 314.743 148.06 314.583C147.9 314.423 147.82 314.228 147.82 313.998C147.82 313.768 147.9 313.573 148.06 313.413C148.23 313.253 148.425 313.173 148.645 313.173C148.865 313.173 149.055 313.253 149.215 313.413C149.385 313.573 149.47 313.768 149.47 313.998C149.47 314.228 149.385 314.423 149.215 314.583ZM155.294 324.438C154.184 324.438 153.264 324.078 152.534 323.358C151.814 322.628 151.454 321.663 151.454 320.463V320.343C151.454 319.163 151.819 318.198 152.549 317.448C153.289 316.698 154.194 316.323 155.264 316.323C156.164 316.323 156.929 316.548 157.559 316.998C158.189 317.438 158.559 318.128 158.669 319.068H157.439C157.259 317.928 156.534 317.358 155.264 317.358C154.534 317.358 153.929 317.633 153.449 318.183C152.979 318.723 152.744 319.443 152.744 320.343V320.463C152.744 321.403 152.974 322.128 153.434 322.638C153.904 323.148 154.529 323.403 155.309 323.403C155.899 323.403 156.404 323.238 156.824 322.908C157.254 322.568 157.499 322.093 157.559 321.483H158.714C158.634 322.343 158.274 323.053 157.634 323.613C157.004 324.163 156.224 324.438 155.294 324.438ZM160.823 324.303V316.458H162.068V324.303H160.823ZM161.993 314.583C161.833 314.743 161.643 314.823 161.423 314.823C161.203 314.823 161.008 314.743 160.838 314.583C160.678 314.423 160.598 314.228 160.598 313.998C160.598 313.768 160.678 313.573 160.838 313.413C161.008 313.253 161.203 313.173 161.423 313.173C161.643 313.173 161.833 313.253 161.993 313.413C162.163 313.573 162.248 313.768 162.248 313.998C162.248 314.228 162.163 314.423 161.993 314.583ZM164.817 324.303V316.458H166.062V317.703C166.252 317.303 166.567 316.973 167.007 316.713C167.447 316.453 167.972 316.323 168.582 316.323C169.442 316.323 170.117 316.578 170.607 317.088C171.097 317.598 171.342 318.398 171.342 319.488V324.303H170.097V319.398C170.097 318.708 169.947 318.203 169.647 317.883C169.347 317.563 168.882 317.403 168.252 317.403C167.642 317.403 167.122 317.593 166.692 317.973C166.272 318.353 166.062 318.878 166.062 319.548V324.303H164.817ZM177.116 327.168C176.026 327.168 175.186 326.943 174.596 326.493C174.016 326.053 173.671 325.473 173.561 324.753H174.836C175.016 325.663 175.771 326.118 177.101 326.118C177.901 326.118 178.521 325.918 178.961 325.518C179.401 325.128 179.621 324.523 179.621 323.703V322.563C179.381 322.973 179.016 323.323 178.526 323.613C178.036 323.903 177.516 324.048 176.966 324.048C175.936 324.048 175.081 323.698 174.401 322.998C173.731 322.298 173.396 321.408 173.396 320.328V320.223C173.396 319.133 173.741 318.213 174.431 317.463C175.121 316.703 175.996 316.323 177.056 316.323C178.216 316.323 179.071 316.788 179.621 317.718V316.458H180.866V323.778C180.856 324.888 180.511 325.728 179.831 326.298C179.151 326.878 178.246 327.168 177.116 327.168ZM177.101 323.013C177.851 323.013 178.466 322.768 178.946 322.278C179.426 321.778 179.666 321.098 179.666 320.238V320.133C179.666 319.263 179.441 318.583 178.991 318.093C178.551 317.603 177.946 317.358 177.176 317.358C176.406 317.358 175.796 317.618 175.346 318.138C174.906 318.648 174.686 319.323 174.686 320.163V320.283C174.686 321.113 174.916 321.778 175.376 322.278C175.846 322.768 176.421 323.013 177.101 323.013ZM187.846 324.303V313.578H194.116V314.643H189.151V318.438H193.021V319.503H189.151V324.303H187.846ZM198.9 324.438C197.78 324.438 196.865 324.078 196.155 323.358C195.455 322.628 195.105 321.663 195.105 320.463V320.343C195.105 319.163 195.445 318.198 196.125 317.448C196.815 316.698 197.7 316.323 198.78 316.323C199.78 316.323 200.615 316.648 201.285 317.298C201.965 317.938 202.305 318.913 202.305 320.223V320.628H196.395C196.425 321.528 196.65 322.218 197.07 322.698C197.5 323.168 198.115 323.403 198.915 323.403C200.145 323.403 200.84 322.948 201 322.038H202.245C202.115 322.808 201.75 323.403 201.15 323.823C200.55 324.233 199.8 324.438 198.9 324.438ZM196.44 319.623H201.03C200.92 318.113 200.17 317.358 198.78 317.358C198.15 317.358 197.63 317.563 197.22 317.973C196.81 318.373 196.55 318.923 196.44 319.623ZM206.454 324.438C205.684 324.438 205.054 324.248 204.564 323.868C204.084 323.478 203.844 322.898 203.844 322.128C203.844 321.288 204.214 320.673 204.954 320.283C205.704 319.893 206.644 319.698 207.774 319.698H208.899V319.128C208.899 318.498 208.769 318.048 208.509 317.778C208.249 317.498 207.819 317.358 207.219 317.358C206.139 317.358 205.539 317.828 205.419 318.768H204.174C204.254 317.928 204.584 317.313 205.164 316.923C205.744 316.523 206.449 316.323 207.279 316.323C209.189 316.323 210.144 317.258 210.144 319.128V324.303H208.899V323.313C208.299 324.063 207.484 324.438 206.454 324.438ZM206.574 323.448C207.254 323.448 207.809 323.283 208.239 322.953C208.679 322.613 208.899 322.148 208.899 321.558V320.583H207.819C205.999 320.583 205.089 321.098 205.089 322.128C205.089 323.008 205.584 323.448 206.574 323.448ZM215.174 324.408C214.484 324.408 213.959 324.223 213.599 323.853C213.239 323.483 213.059 322.978 213.059 322.338V317.508H211.934V316.458H213.059V314.673H214.304V316.458H216.134V317.508H214.304V322.218C214.304 322.978 214.629 323.358 215.279 323.358C215.639 323.358 215.959 323.303 216.239 323.193V324.243C215.929 324.353 215.574 324.408 215.174 324.408ZM220.976 324.438C220.146 324.438 219.481 324.193 218.981 323.703C218.491 323.213 218.246 322.453 218.246 321.423V316.458H219.491V321.363C219.491 322.053 219.636 322.558 219.926 322.878C220.226 323.198 220.686 323.358 221.306 323.358C221.896 323.358 222.401 323.168 222.821 322.788C223.251 322.408 223.466 321.883 223.466 321.213V316.458H224.711V324.303H223.466V323.058C223.276 323.458 222.961 323.788 222.521 324.048C222.091 324.308 221.576 324.438 220.976 324.438ZM227.427 324.303V316.458H228.672V317.868C228.942 317.378 229.272 317.003 229.662 316.743C230.062 316.483 230.592 316.343 231.252 316.323V317.493C230.392 317.533 229.747 317.733 229.317 318.093C228.887 318.453 228.672 319.088 228.672 319.998V324.303H227.427ZM236.257 324.438C235.137 324.438 234.222 324.078 233.512 323.358C232.812 322.628 232.462 321.663 232.462 320.463V320.343C232.462 319.163 232.802 318.198 233.482 317.448C234.172 316.698 235.057 316.323 236.137 316.323C237.137 316.323 237.972 316.648 238.642 317.298C239.322 317.938 239.662 318.913 239.662 320.223V320.628H233.752C233.782 321.528 234.007 322.218 234.427 322.698C234.857 323.168 235.472 323.403 236.272 323.403C237.502 323.403 238.197 322.948 238.357 322.038H239.602C239.472 322.808 239.107 323.403 238.507 323.823C237.907 324.233 237.157 324.438 236.257 324.438ZM233.797 319.623H238.387C238.277 318.113 237.527 317.358 236.137 317.358C235.507 317.358 234.987 317.563 234.577 317.973C234.167 318.373 233.907 318.923 233.797 319.623Z" fill="#252B42"/>
<path d="M133.35 372.303V361.578H136.395C137.505 361.578 138.405 361.838 139.095 362.358C139.795 362.868 140.145 363.653 140.145 364.713V364.773C140.145 365.853 139.795 366.653 139.095 367.173C138.405 367.683 137.505 367.938 136.395 367.938H134.655V372.303H133.35ZM134.655 366.903H136.485C137.245 366.903 137.825 366.723 138.225 366.363C138.635 365.993 138.84 365.463 138.84 364.773V364.713C138.84 363.323 138.055 362.628 136.485 362.628H134.655V366.903ZM142.176 372.303V364.458H143.421V365.868C143.691 365.378 144.021 365.003 144.411 364.743C144.811 364.483 145.341 364.343 146.001 364.323V365.493C145.141 365.533 144.496 365.733 144.066 366.093C143.636 366.453 143.421 367.088 143.421 367.998V372.303H142.176ZM148.045 372.303V364.458H149.29V372.303H148.045ZM149.215 362.583C149.055 362.743 148.865 362.823 148.645 362.823C148.425 362.823 148.23 362.743 148.06 362.583C147.9 362.423 147.82 362.228 147.82 361.998C147.82 361.768 147.9 361.573 148.06 361.413C148.23 361.253 148.425 361.173 148.645 361.173C148.865 361.173 149.055 361.253 149.215 361.413C149.385 361.573 149.47 361.768 149.47 361.998C149.47 362.228 149.385 362.423 149.215 362.583ZM155.294 372.438C154.184 372.438 153.264 372.078 152.534 371.358C151.814 370.628 151.454 369.663 151.454 368.463V368.343C151.454 367.163 151.819 366.198 152.549 365.448C153.289 364.698 154.194 364.323 155.264 364.323C156.164 364.323 156.929 364.548 157.559 364.998C158.189 365.438 158.559 366.128 158.669 367.068H157.439C157.259 365.928 156.534 365.358 155.264 365.358C154.534 365.358 153.929 365.633 153.449 366.183C152.979 366.723 152.744 367.443 152.744 368.343V368.463C152.744 369.403 152.974 370.128 153.434 370.638C153.904 371.148 154.529 371.403 155.309 371.403C155.899 371.403 156.404 371.238 156.824 370.908C157.254 370.568 157.499 370.093 157.559 369.483H158.714C158.634 370.343 158.274 371.053 157.634 371.613C157.004 372.163 156.224 372.438 155.294 372.438ZM160.823 372.303V364.458H162.068V372.303H160.823ZM161.993 362.583C161.833 362.743 161.643 362.823 161.423 362.823C161.203 362.823 161.008 362.743 160.838 362.583C160.678 362.423 160.598 362.228 160.598 361.998C160.598 361.768 160.678 361.573 160.838 361.413C161.008 361.253 161.203 361.173 161.423 361.173C161.643 361.173 161.833 361.253 161.993 361.413C162.163 361.573 162.248 361.768 162.248 361.998C162.248 362.228 162.163 362.423 161.993 362.583ZM164.817 372.303V364.458H166.062V365.703C166.252 365.303 166.567 364.973 167.007 364.713C167.447 364.453 167.972 364.323 168.582 364.323C169.442 364.323 170.117 364.578 170.607 365.088C171.097 365.598 171.342 366.398 171.342 367.488V372.303H170.097V367.398C170.097 366.708 169.947 366.203 169.647 365.883C169.347 365.563 168.882 365.403 168.252 365.403C167.642 365.403 167.122 365.593 166.692 365.973C166.272 366.353 166.062 366.878 166.062 367.548V372.303H164.817ZM177.116 375.168C176.026 375.168 175.186 374.943 174.596 374.493C174.016 374.053 173.671 373.473 173.561 372.753H174.836C175.016 373.663 175.771 374.118 177.101 374.118C177.901 374.118 178.521 373.918 178.961 373.518C179.401 373.128 179.621 372.523 179.621 371.703V370.563C179.381 370.973 179.016 371.323 178.526 371.613C178.036 371.903 177.516 372.048 176.966 372.048C175.936 372.048 175.081 371.698 174.401 370.998C173.731 370.298 173.396 369.408 173.396 368.328V368.223C173.396 367.133 173.741 366.213 174.431 365.463C175.121 364.703 175.996 364.323 177.056 364.323C178.216 364.323 179.071 364.788 179.621 365.718V364.458H180.866V371.778C180.856 372.888 180.511 373.728 179.831 374.298C179.151 374.878 178.246 375.168 177.116 375.168ZM177.101 371.013C177.851 371.013 178.466 370.768 178.946 370.278C179.426 369.778 179.666 369.098 179.666 368.238V368.133C179.666 367.263 179.441 366.583 178.991 366.093C178.551 365.603 177.946 365.358 177.176 365.358C176.406 365.358 175.796 365.618 175.346 366.138C174.906 366.648 174.686 367.323 174.686 368.163V368.283C174.686 369.113 174.916 369.778 175.376 370.278C175.846 370.768 176.421 371.013 177.101 371.013ZM187.846 372.303V361.578H194.116V362.643H189.151V366.438H193.021V367.503H189.151V372.303H187.846ZM198.9 372.438C197.78 372.438 196.865 372.078 196.155 371.358C195.455 370.628 195.105 369.663 195.105 368.463V368.343C195.105 367.163 195.445 366.198 196.125 365.448C196.815 364.698 197.7 364.323 198.78 364.323C199.78 364.323 200.615 364.648 201.285 365.298C201.965 365.938 202.305 366.913 202.305 368.223V368.628H196.395C196.425 369.528 196.65 370.218 197.07 370.698C197.5 371.168 198.115 371.403 198.915 371.403C200.145 371.403 200.84 370.948 201 370.038H202.245C202.115 370.808 201.75 371.403 201.15 371.823C200.55 372.233 199.8 372.438 198.9 372.438ZM196.44 367.623H201.03C200.92 366.113 200.17 365.358 198.78 365.358C198.15 365.358 197.63 365.563 197.22 365.973C196.81 366.373 196.55 366.923 196.44 367.623ZM206.454 372.438C205.684 372.438 205.054 372.248 204.564 371.868C204.084 371.478 203.844 370.898 203.844 370.128C203.844 369.288 204.214 368.673 204.954 368.283C205.704 367.893 206.644 367.698 207.774 367.698H208.899V367.128C208.899 366.498 208.769 366.048 208.509 365.778C208.249 365.498 207.819 365.358 207.219 365.358C206.139 365.358 205.539 365.828 205.419 366.768H204.174C204.254 365.928 204.584 365.313 205.164 364.923C205.744 364.523 206.449 364.323 207.279 364.323C209.189 364.323 210.144 365.258 210.144 367.128V372.303H208.899V371.313C208.299 372.063 207.484 372.438 206.454 372.438ZM206.574 371.448C207.254 371.448 207.809 371.283 208.239 370.953C208.679 370.613 208.899 370.148 208.899 369.558V368.583H207.819C205.999 368.583 205.089 369.098 205.089 370.128C205.089 371.008 205.584 371.448 206.574 371.448ZM215.174 372.408C214.484 372.408 213.959 372.223 213.599 371.853C213.239 371.483 213.059 370.978 213.059 370.338V365.508H211.934V364.458H213.059V362.673H214.304V364.458H216.134V365.508H214.304V370.218C214.304 370.978 214.629 371.358 215.279 371.358C215.639 371.358 215.959 371.303 216.239 371.193V372.243C215.929 372.353 215.574 372.408 215.174 372.408ZM220.976 372.438C220.146 372.438 219.481 372.193 218.981 371.703C218.491 371.213 218.246 370.453 218.246 369.423V364.458H219.491V369.363C219.491 370.053 219.636 370.558 219.926 370.878C220.226 371.198 220.686 371.358 221.306 371.358C221.896 371.358 222.401 371.168 222.821 370.788C223.251 370.408 223.466 369.883 223.466 369.213V364.458H224.711V372.303H223.466V371.058C223.276 371.458 222.961 371.788 222.521 372.048C222.091 372.308 221.576 372.438 220.976 372.438ZM227.427 372.303V364.458H228.672V365.868C228.942 365.378 229.272 365.003 229.662 364.743C230.062 364.483 230.592 364.343 231.252 364.323V365.493C230.392 365.533 229.747 365.733 229.317 366.093C228.887 366.453 228.672 367.088 228.672 367.998V372.303H227.427ZM236.257 372.438C235.137 372.438 234.222 372.078 233.512 371.358C232.812 370.628 232.462 369.663 232.462 368.463V368.343C232.462 367.163 232.802 366.198 233.482 365.448C234.172 364.698 235.057 364.323 236.137 364.323C237.137 364.323 237.972 364.648 238.642 365.298C239.322 365.938 239.662 366.913 239.662 368.223V368.628H233.752C233.782 369.528 234.007 370.218 234.427 370.698C234.857 371.168 235.472 371.403 236.272 371.403C237.502 371.403 238.197 370.948 238.357 370.038H239.602C239.472 370.808 239.107 371.403 238.507 371.823C237.907 372.233 237.157 372.438 236.257 372.438ZM233.797 367.623H238.387C238.277 366.113 237.527 365.358 236.137 365.358C235.507 365.358 234.987 365.563 234.577 365.973C234.167 366.373 233.907 366.923 233.797 367.623Z" fill="#252B42"/>
<path d="M133.35 420.303V409.578H136.395C137.505 409.578 138.405 409.838 139.095 410.358C139.795 410.868 140.145 411.653 140.145 412.713V412.773C140.145 413.853 139.795 414.653 139.095 415.173C138.405 415.683 137.505 415.938 136.395 415.938H134.655V420.303H133.35ZM134.655 414.903H136.485C137.245 414.903 137.825 414.723 138.225 414.363C138.635 413.993 138.84 413.463 138.84 412.773V412.713C138.84 411.323 138.055 410.628 136.485 410.628H134.655V414.903ZM142.176 420.303V412.458H143.421V413.868C143.691 413.378 144.021 413.003 144.411 412.743C144.811 412.483 145.341 412.343 146.001 412.323V413.493C145.141 413.533 144.496 413.733 144.066 414.093C143.636 414.453 143.421 415.088 143.421 415.998V420.303H142.176ZM148.045 420.303V412.458H149.29V420.303H148.045ZM149.215 410.583C149.055 410.743 148.865 410.823 148.645 410.823C148.425 410.823 148.23 410.743 148.06 410.583C147.9 410.423 147.82 410.228 147.82 409.998C147.82 409.768 147.9 409.573 148.06 409.413C148.23 409.253 148.425 409.173 148.645 409.173C148.865 409.173 149.055 409.253 149.215 409.413C149.385 409.573 149.47 409.768 149.47 409.998C149.47 410.228 149.385 410.423 149.215 410.583ZM155.294 420.438C154.184 420.438 153.264 420.078 152.534 419.358C151.814 418.628 151.454 417.663 151.454 416.463V416.343C151.454 415.163 151.819 414.198 152.549 413.448C153.289 412.698 154.194 412.323 155.264 412.323C156.164 412.323 156.929 412.548 157.559 412.998C158.189 413.438 158.559 414.128 158.669 415.068H157.439C157.259 413.928 156.534 413.358 155.264 413.358C154.534 413.358 153.929 413.633 153.449 414.183C152.979 414.723 152.744 415.443 152.744 416.343V416.463C152.744 417.403 152.974 418.128 153.434 418.638C153.904 419.148 154.529 419.403 155.309 419.403C155.899 419.403 156.404 419.238 156.824 418.908C157.254 418.568 157.499 418.093 157.559 417.483H158.714C158.634 418.343 158.274 419.053 157.634 419.613C157.004 420.163 156.224 420.438 155.294 420.438ZM160.823 420.303V412.458H162.068V420.303H160.823ZM161.993 410.583C161.833 410.743 161.643 410.823 161.423 410.823C161.203 410.823 161.008 410.743 160.838 410.583C160.678 410.423 160.598 410.228 160.598 409.998C160.598 409.768 160.678 409.573 160.838 409.413C161.008 409.253 161.203 409.173 161.423 409.173C161.643 409.173 161.833 409.253 161.993 409.413C162.163 409.573 162.248 409.768 162.248 409.998C162.248 410.228 162.163 410.423 161.993 410.583ZM164.817 420.303V412.458H166.062V413.703C166.252 413.303 166.567 412.973 167.007 412.713C167.447 412.453 167.972 412.323 168.582 412.323C169.442 412.323 170.117 412.578 170.607 413.088C171.097 413.598 171.342 414.398 171.342 415.488V420.303H170.097V415.398C170.097 414.708 169.947 414.203 169.647 413.883C169.347 413.563 168.882 413.403 168.252 413.403C167.642 413.403 167.122 413.593 166.692 413.973C166.272 414.353 166.062 414.878 166.062 415.548V420.303H164.817ZM177.116 423.168C176.026 423.168 175.186 422.943 174.596 422.493C174.016 422.053 173.671 421.473 173.561 420.753H174.836C175.016 421.663 175.771 422.118 177.101 422.118C177.901 422.118 178.521 421.918 178.961 421.518C179.401 421.128 179.621 420.523 179.621 419.703V418.563C179.381 418.973 179.016 419.323 178.526 419.613C178.036 419.903 177.516 420.048 176.966 420.048C175.936 420.048 175.081 419.698 174.401 418.998C173.731 418.298 173.396 417.408 173.396 416.328V416.223C173.396 415.133 173.741 414.213 174.431 413.463C175.121 412.703 175.996 412.323 177.056 412.323C178.216 412.323 179.071 412.788 179.621 413.718V412.458H180.866V419.778C180.856 420.888 180.511 421.728 179.831 422.298C179.151 422.878 178.246 423.168 177.116 423.168ZM177.101 419.013C177.851 419.013 178.466 418.768 178.946 418.278C179.426 417.778 179.666 417.098 179.666 416.238V416.133C179.666 415.263 179.441 414.583 178.991 414.093C178.551 413.603 177.946 413.358 177.176 413.358C176.406 413.358 175.796 413.618 175.346 414.138C174.906 414.648 174.686 415.323 174.686 416.163V416.283C174.686 417.113 174.916 417.778 175.376 418.278C175.846 418.768 176.421 419.013 177.101 419.013ZM187.846 420.303V409.578H194.116V410.643H189.151V414.438H193.021V415.503H189.151V420.303H187.846ZM198.9 420.438C197.78 420.438 196.865 420.078 196.155 419.358C195.455 418.628 195.105 417.663 195.105 416.463V416.343C195.105 415.163 195.445 414.198 196.125 413.448C196.815 412.698 197.7 412.323 198.78 412.323C199.78 412.323 200.615 412.648 201.285 413.298C201.965 413.938 202.305 414.913 202.305 416.223V416.628H196.395C196.425 417.528 196.65 418.218 197.07 418.698C197.5 419.168 198.115 419.403 198.915 419.403C200.145 419.403 200.84 418.948 201 418.038H202.245C202.115 418.808 201.75 419.403 201.15 419.823C200.55 420.233 199.8 420.438 198.9 420.438ZM196.44 415.623H201.03C200.92 414.113 200.17 413.358 198.78 413.358C198.15 413.358 197.63 413.563 197.22 413.973C196.81 414.373 196.55 414.923 196.44 415.623ZM206.454 420.438C205.684 420.438 205.054 420.248 204.564 419.868C204.084 419.478 203.844 418.898 203.844 418.128C203.844 417.288 204.214 416.673 204.954 416.283C205.704 415.893 206.644 415.698 207.774 415.698H208.899V415.128C208.899 414.498 208.769 414.048 208.509 413.778C208.249 413.498 207.819 413.358 207.219 413.358C206.139 413.358 205.539 413.828 205.419 414.768H204.174C204.254 413.928 204.584 413.313 205.164 412.923C205.744 412.523 206.449 412.323 207.279 412.323C209.189 412.323 210.144 413.258 210.144 415.128V420.303H208.899V419.313C208.299 420.063 207.484 420.438 206.454 420.438ZM206.574 419.448C207.254 419.448 207.809 419.283 208.239 418.953C208.679 418.613 208.899 418.148 208.899 417.558V416.583H207.819C205.999 416.583 205.089 417.098 205.089 418.128C205.089 419.008 205.584 419.448 206.574 419.448ZM215.174 420.408C214.484 420.408 213.959 420.223 213.599 419.853C213.239 419.483 213.059 418.978 213.059 418.338V413.508H211.934V412.458H213.059V410.673H214.304V412.458H216.134V413.508H214.304V418.218C214.304 418.978 214.629 419.358 215.279 419.358C215.639 419.358 215.959 419.303 216.239 419.193V420.243C215.929 420.353 215.574 420.408 215.174 420.408ZM220.976 420.438C220.146 420.438 219.481 420.193 218.981 419.703C218.491 419.213 218.246 418.453 218.246 417.423V412.458H219.491V417.363C219.491 418.053 219.636 418.558 219.926 418.878C220.226 419.198 220.686 419.358 221.306 419.358C221.896 419.358 222.401 419.168 222.821 418.788C223.251 418.408 223.466 417.883 223.466 417.213V412.458H224.711V420.303H223.466V419.058C223.276 419.458 222.961 419.788 222.521 420.048C222.091 420.308 221.576 420.438 220.976 420.438ZM227.427 420.303V412.458H228.672V413.868C228.942 413.378 229.272 413.003 229.662 412.743C230.062 412.483 230.592 412.343 231.252 412.323V413.493C230.392 413.533 229.747 413.733 229.317 414.093C228.887 414.453 228.672 415.088 228.672 415.998V420.303H227.427ZM236.257 420.438C235.137 420.438 234.222 420.078 233.512 419.358C232.812 418.628 232.462 417.663 232.462 416.463V416.343C232.462 415.163 232.802 414.198 233.482 413.448C234.172 412.698 235.057 412.323 236.137 412.323C237.137 412.323 237.972 412.648 238.642 413.298C239.322 413.938 239.662 414.913 239.662 416.223V416.628H233.752C233.782 417.528 234.007 418.218 234.427 418.698C234.857 419.168 235.472 419.403 236.272 419.403C237.502 419.403 238.197 418.948 238.357 418.038H239.602C239.472 418.808 239.107 419.403 238.507 419.823C237.907 420.233 237.157 420.438 236.257 420.438ZM233.797 415.623H238.387C238.277 414.113 237.527 413.358 236.137 413.358C235.507 413.358 234.987 413.563 234.577 413.973C234.167 414.373 233.907 414.923 233.797 415.623Z" fill="#252B42"/>
<path d="M133.35 468.303V457.578H136.395C137.505 457.578 138.405 457.838 139.095 458.358C139.795 458.868 140.145 459.653 140.145 460.713V460.773C140.145 461.853 139.795 462.653 139.095 463.173C138.405 463.683 137.505 463.938 136.395 463.938H134.655V468.303H133.35ZM134.655 462.903H136.485C137.245 462.903 137.825 462.723 138.225 462.363C138.635 461.993 138.84 461.463 138.84 460.773V460.713C138.84 459.323 138.055 458.628 136.485 458.628H134.655V462.903ZM142.176 468.303V460.458H143.421V461.868C143.691 461.378 144.021 461.003 144.411 460.743C144.811 460.483 145.341 460.343 146.001 460.323V461.493C145.141 461.533 144.496 461.733 144.066 462.093C143.636 462.453 143.421 463.088 143.421 463.998V468.303H142.176ZM148.045 468.303V460.458H149.29V468.303H148.045ZM149.215 458.583C149.055 458.743 148.865 458.823 148.645 458.823C148.425 458.823 148.23 458.743 148.06 458.583C147.9 458.423 147.82 458.228 147.82 457.998C147.82 457.768 147.9 457.573 148.06 457.413C148.23 457.253 148.425 457.173 148.645 457.173C148.865 457.173 149.055 457.253 149.215 457.413C149.385 457.573 149.47 457.768 149.47 457.998C149.47 458.228 149.385 458.423 149.215 458.583ZM155.294 468.438C154.184 468.438 153.264 468.078 152.534 467.358C151.814 466.628 151.454 465.663 151.454 464.463V464.343C151.454 463.163 151.819 462.198 152.549 461.448C153.289 460.698 154.194 460.323 155.264 460.323C156.164 460.323 156.929 460.548 157.559 460.998C158.189 461.438 158.559 462.128 158.669 463.068H157.439C157.259 461.928 156.534 461.358 155.264 461.358C154.534 461.358 153.929 461.633 153.449 462.183C152.979 462.723 152.744 463.443 152.744 464.343V464.463C152.744 465.403 152.974 466.128 153.434 466.638C153.904 467.148 154.529 467.403 155.309 467.403C155.899 467.403 156.404 467.238 156.824 466.908C157.254 466.568 157.499 466.093 157.559 465.483H158.714C158.634 466.343 158.274 467.053 157.634 467.613C157.004 468.163 156.224 468.438 155.294 468.438ZM160.823 468.303V460.458H162.068V468.303H160.823ZM161.993 458.583C161.833 458.743 161.643 458.823 161.423 458.823C161.203 458.823 161.008 458.743 160.838 458.583C160.678 458.423 160.598 458.228 160.598 457.998C160.598 457.768 160.678 457.573 160.838 457.413C161.008 457.253 161.203 457.173 161.423 457.173C161.643 457.173 161.833 457.253 161.993 457.413C162.163 457.573 162.248 457.768 162.248 457.998C162.248 458.228 162.163 458.423 161.993 458.583ZM164.817 468.303V460.458H166.062V461.703C166.252 461.303 166.567 460.973 167.007 460.713C167.447 460.453 167.972 460.323 168.582 460.323C169.442 460.323 170.117 460.578 170.607 461.088C171.097 461.598 171.342 462.398 171.342 463.488V468.303H170.097V463.398C170.097 462.708 169.947 462.203 169.647 461.883C169.347 461.563 168.882 461.403 168.252 461.403C167.642 461.403 167.122 461.593 166.692 461.973C166.272 462.353 166.062 462.878 166.062 463.548V468.303H164.817ZM177.116 471.168C176.026 471.168 175.186 470.943 174.596 470.493C174.016 470.053 173.671 469.473 173.561 468.753H174.836C175.016 469.663 175.771 470.118 177.101 470.118C177.901 470.118 178.521 469.918 178.961 469.518C179.401 469.128 179.621 468.523 179.621 467.703V466.563C179.381 466.973 179.016 467.323 178.526 467.613C178.036 467.903 177.516 468.048 176.966 468.048C175.936 468.048 175.081 467.698 174.401 466.998C173.731 466.298 173.396 465.408 173.396 464.328V464.223C173.396 463.133 173.741 462.213 174.431 461.463C175.121 460.703 175.996 460.323 177.056 460.323C178.216 460.323 179.071 460.788 179.621 461.718V460.458H180.866V467.778C180.856 468.888 180.511 469.728 179.831 470.298C179.151 470.878 178.246 471.168 177.116 471.168ZM177.101 467.013C177.851 467.013 178.466 466.768 178.946 466.278C179.426 465.778 179.666 465.098 179.666 464.238V464.133C179.666 463.263 179.441 462.583 178.991 462.093C178.551 461.603 177.946 461.358 177.176 461.358C176.406 461.358 175.796 461.618 175.346 462.138C174.906 462.648 174.686 463.323 174.686 464.163V464.283C174.686 465.113 174.916 465.778 175.376 466.278C175.846 466.768 176.421 467.013 177.101 467.013ZM187.846 468.303V457.578H194.116V458.643H189.151V462.438H193.021V463.503H189.151V468.303H187.846ZM198.9 468.438C197.78 468.438 196.865 468.078 196.155 467.358C195.455 466.628 195.105 465.663 195.105 464.463V464.343C195.105 463.163 195.445 462.198 196.125 461.448C196.815 460.698 197.7 460.323 198.78 460.323C199.78 460.323 200.615 460.648 201.285 461.298C201.965 461.938 202.305 462.913 202.305 464.223V464.628H196.395C196.425 465.528 196.65 466.218 197.07 466.698C197.5 467.168 198.115 467.403 198.915 467.403C200.145 467.403 200.84 466.948 201 466.038H202.245C202.115 466.808 201.75 467.403 201.15 467.823C200.55 468.233 199.8 468.438 198.9 468.438ZM196.44 463.623H201.03C200.92 462.113 200.17 461.358 198.78 461.358C198.15 461.358 197.63 461.563 197.22 461.973C196.81 462.373 196.55 462.923 196.44 463.623ZM206.454 468.438C205.684 468.438 205.054 468.248 204.564 467.868C204.084 467.478 203.844 466.898 203.844 466.128C203.844 465.288 204.214 464.673 204.954 464.283C205.704 463.893 206.644 463.698 207.774 463.698H208.899V463.128C208.899 462.498 208.769 462.048 208.509 461.778C208.249 461.498 207.819 461.358 207.219 461.358C206.139 461.358 205.539 461.828 205.419 462.768H204.174C204.254 461.928 204.584 461.313 205.164 460.923C205.744 460.523 206.449 460.323 207.279 460.323C209.189 460.323 210.144 461.258 210.144 463.128V468.303H208.899V467.313C208.299 468.063 207.484 468.438 206.454 468.438ZM206.574 467.448C207.254 467.448 207.809 467.283 208.239 466.953C208.679 466.613 208.899 466.148 208.899 465.558V464.583H207.819C205.999 464.583 205.089 465.098 205.089 466.128C205.089 467.008 205.584 467.448 206.574 467.448ZM215.174 468.408C214.484 468.408 213.959 468.223 213.599 467.853C213.239 467.483 213.059 466.978 213.059 466.338V461.508H211.934V460.458H213.059V458.673H214.304V460.458H216.134V461.508H214.304V466.218C214.304 466.978 214.629 467.358 215.279 467.358C215.639 467.358 215.959 467.303 216.239 467.193V468.243C215.929 468.353 215.574 468.408 215.174 468.408ZM220.976 468.438C220.146 468.438 219.481 468.193 218.981 467.703C218.491 467.213 218.246 466.453 218.246 465.423V460.458H219.491V465.363C219.491 466.053 219.636 466.558 219.926 466.878C220.226 467.198 220.686 467.358 221.306 467.358C221.896 467.358 222.401 467.168 222.821 466.788C223.251 466.408 223.466 465.883 223.466 465.213V460.458H224.711V468.303H223.466V467.058C223.276 467.458 222.961 467.788 222.521 468.048C222.091 468.308 221.576 468.438 220.976 468.438ZM227.427 468.303V460.458H228.672V461.868C228.942 461.378 229.272 461.003 229.662 460.743C230.062 460.483 230.592 460.343 231.252 460.323V461.493C230.392 461.533 229.747 461.733 229.317 462.093C228.887 462.453 228.672 463.088 228.672 463.998V468.303H227.427ZM236.257 468.438C235.137 468.438 234.222 468.078 233.512 467.358C232.812 466.628 232.462 465.663 232.462 464.463V464.343C232.462 463.163 232.802 462.198 233.482 461.448C234.172 460.698 235.057 460.323 236.137 460.323C237.137 460.323 237.972 460.648 238.642 461.298C239.322 461.938 239.662 462.913 239.662 464.223V464.628H233.752C233.782 465.528 234.007 466.218 234.427 466.698C234.857 467.168 235.472 467.403 236.272 467.403C237.502 467.403 238.197 466.948 238.357 466.038H239.602C239.472 466.808 239.107 467.403 238.507 467.823C237.907 468.233 237.157 468.438 236.257 468.438ZM233.797 463.623H238.387C238.277 462.113 237.527 461.358 236.137 461.358C235.507 461.358 234.987 461.563 234.577 461.973C234.167 462.373 233.907 462.923 233.797 463.623Z" fill="#252B42"/>
</g>
<rect x="59" y="517.303" width="255" height="56" rx="28" fill="#2091F9"/>
<g clip-path="url(#clip8_67_6755)">
<path d="M142.68 550.043C144.253 550.043 145.5 549.503 146.42 548.423C147.353 547.343 147.82 545.93 147.82 544.183V544.023C147.82 542.357 147.353 540.977 146.42 539.883C145.5 538.777 144.24 538.223 142.64 538.223C141.013 538.223 139.733 538.763 138.8 539.843C137.867 540.923 137.4 542.33 137.4 544.063V544.223C137.4 545.93 137.9 547.33 138.9 548.423C139.913 549.503 141.173 550.043 142.68 550.043ZM142.68 551.483C140.6 551.483 138.9 550.79 137.58 549.403C136.26 548.003 135.6 546.283 135.6 544.243V544.083C135.6 542.017 136.253 540.29 137.56 538.903C138.88 537.517 140.573 536.823 142.64 536.823C144.707 536.823 146.387 537.517 147.68 538.903C148.973 540.277 149.62 541.99 149.62 544.043V544.203C149.62 546.257 148.973 547.983 147.68 549.383C146.387 550.783 144.72 551.483 142.68 551.483ZM152.591 551.303V540.843H154.251V542.723C154.611 542.07 155.051 541.57 155.571 541.223C156.104 540.877 156.811 540.69 157.691 540.663V542.223C156.544 542.277 155.684 542.543 155.111 543.023C154.538 543.503 154.251 544.35 154.251 545.563V551.303H152.591ZM163.957 551.483C162.557 551.483 161.417 551.017 160.537 550.083C159.671 549.15 159.237 547.883 159.237 546.283V546.123C159.237 544.523 159.691 543.217 160.597 542.203C161.504 541.177 162.677 540.663 164.117 540.663C165.664 540.663 166.804 541.283 167.537 542.523V535.843H169.198V551.303H167.537V549.503C167.217 550.037 166.724 550.503 166.057 550.903C165.391 551.29 164.691 551.483 163.957 551.483ZM164.138 550.103C165.164 550.103 165.997 549.77 166.638 549.103C167.278 548.423 167.598 547.437 167.598 546.143V545.983C167.598 544.677 167.304 543.697 166.718 543.043C166.144 542.377 165.331 542.043 164.278 542.043C163.237 542.043 162.424 542.397 161.837 543.103C161.251 543.797 160.957 544.777 160.957 546.043V546.203C160.957 547.47 161.251 548.437 161.837 549.103C162.437 549.77 163.204 550.103 164.138 550.103ZM177.037 551.483C175.543 551.483 174.323 551.003 173.377 550.043C172.443 549.07 171.977 547.783 171.977 546.183V546.023C171.977 544.45 172.43 543.163 173.337 542.163C174.257 541.163 175.437 540.663 176.877 540.663C178.21 540.663 179.323 541.097 180.217 541.963C181.123 542.817 181.577 544.117 181.577 545.863V546.403H173.697C173.737 547.603 174.037 548.523 174.597 549.163C175.17 549.79 175.99 550.103 177.057 550.103C178.697 550.103 179.623 549.497 179.837 548.283H181.497C181.323 549.31 180.837 550.103 180.037 550.663C179.237 551.21 178.237 551.483 177.037 551.483ZM173.757 545.063H179.877C179.73 543.05 178.73 542.043 176.877 542.043C176.037 542.043 175.343 542.317 174.797 542.863C174.25 543.397 173.903 544.13 173.757 545.063ZM184.324 551.303V540.843H185.984V542.723C186.344 542.07 186.784 541.57 187.304 541.223C187.837 540.877 188.544 540.69 189.424 540.663V542.223C188.277 542.277 187.417 542.543 186.844 543.023C186.27 543.503 185.984 544.35 185.984 545.563V551.303H184.324ZM197.656 551.303V537.003H199.916L206.876 548.823V537.003H208.536V551.303H206.536L199.316 539.043V551.303H197.656ZM216.569 550.103C217.609 550.103 218.436 549.743 219.049 549.023C219.676 548.303 219.989 547.35 219.989 546.163V546.023C219.989 544.81 219.676 543.843 219.049 543.123C218.436 542.403 217.609 542.043 216.569 542.043C215.516 542.043 214.682 542.403 214.069 543.123C213.456 543.843 213.149 544.803 213.149 546.003V546.163C213.149 547.363 213.456 548.323 214.069 549.043C214.682 549.75 215.516 550.103 216.569 550.103ZM216.549 551.483C215.069 551.483 213.842 550.983 212.869 549.983C211.909 548.97 211.429 547.697 211.429 546.163V546.003C211.429 544.443 211.909 543.163 212.869 542.163C213.842 541.163 215.076 540.663 216.569 540.663C218.062 540.663 219.289 541.163 220.249 542.163C221.222 543.15 221.709 544.423 221.709 545.983V546.143C221.709 547.717 221.222 549.003 220.249 550.003C219.276 550.99 218.042 551.483 216.549 551.483ZM226.384 551.303L223.164 540.843H224.964L227.404 549.263L229.944 540.843H231.384L233.764 549.263L236.224 540.843H237.924L234.664 551.303H232.824L230.644 543.463L228.204 551.303H226.384Z" fill="white"/>
</g>
<rect x="19.5" y="6.80322" width="334" height="606" rx="9.5" stroke="#DEDEDE"/>
</g>
<defs>
<filter id="filter0_d_67_6755" x="0" y="0.303223" width="373" height="645" filterUnits="userSpaceOnUse" color-interpolation-filters="sRGB">
<feFlood flood-opacity="0" result="BackgroundImageFix"/>
<feColorMatrix in="SourceAlpha" type="matrix" values="0 0 0 0 0 0 0 0 0 0 0 0 0 0 0 0 0 0 127 0" result="hardAlpha"/>
<feOffset dy="13"/>
<feGaussianBlur stdDeviation="9.5"/>
<feColorMatrix type="matrix" values="0 0 0 0 0 0 0 0 0 0 0 0 0 0 0 0 0 0 0.07 0"/>
<feBlend mode="normal" in2="BackgroundImageFix" result="effect1_dropShadow_67_6755"/>
<feBlend mode="normal" in="SourceGraphic" in2="effect1_dropShadow_67_6755" result="shape"/>
</filter>
<clipPath id="clip0_67_6755">
<rect width="148" height="80" fill="white" transform="translate(112.5 46.3032)"/>
</clipPath>
<clipPath id="clip1_67_6755">
<rect width="148" height="46" fill="white" transform="translate(112.5 80.3032)"/>
</clipPath>
<clipPath id="clip2_67_6755">
<rect width="153" height="61" fill="white" transform="translate(110 156.303)"/>
</clipPath>
<clipPath id="clip3_67_6755">
<rect width="75" height="104" fill="white" transform="translate(110 134.803)"/>
</clipPath>
<clipPath id="clip4_67_6755">
<rect width="78" height="51" fill="white" transform="translate(185 156.303)"/>
</clipPath>
<clipPath id="clip5_67_6755">
<rect width="13" height="28" fill="white" transform="translate(185 156.303)"/>
</clipPath>
<clipPath id="clip6_67_6755">
<rect width="78" height="23" fill="white" transform="translate(185 184.303)"/>
</clipPath>
<clipPath id="clip7_67_6755">
<rect width="255" height="240" fill="white" transform="translate(59 247.303)"/>
</clipPath>
<clipPath id="clip8_67_6755">
<rect width="104" height="20" fill="white" transform="translate(134.5 535.303)"/>
</clipPath>
</defs>
</svg>
