<svg width="373" height="732" viewBox="0 0 373 732" fill="none" xmlns="http://www.w3.org/2000/svg">
<g filter="url(#filter0_d_67_6777)">
<rect x="19" y="6.30322" width="335" height="693" rx="10" fill="#2091F9"/>
<g clip-path="url(#clip0_67_6777)">
<path d="M136.62 113.543C134.633 113.543 133.127 113.137 132.1 112.323C131.073 111.51 130.527 110.323 130.46 108.763H134.36C134.413 109.35 134.607 109.81 134.94 110.143C135.273 110.463 135.833 110.623 136.62 110.623C137.193 110.623 137.64 110.497 137.96 110.243C138.293 109.977 138.46 109.63 138.46 109.203C138.46 108.777 138.307 108.477 138 108.303C137.693 108.117 137.093 107.957 136.2 107.823C134.187 107.583 132.78 107.13 131.98 106.463C131.193 105.783 130.8 104.717 130.8 103.263C130.8 101.957 131.3 100.89 132.3 100.063C133.313 99.2232 134.66 98.8032 136.34 98.8032C139.847 98.8032 141.727 100.29 141.98 103.263H138.18C138.033 102.237 137.42 101.723 136.34 101.723C135.807 101.723 135.393 101.837 135.1 102.063C134.82 102.277 134.68 102.57 134.68 102.943C134.68 103.357 134.833 103.663 135.14 103.863C135.447 104.063 136.033 104.223 136.9 104.343C138.82 104.557 140.213 104.983 141.08 105.623C141.947 106.25 142.38 107.303 142.38 108.783C142.38 110.143 141.867 111.277 140.84 112.183C139.813 113.09 138.407 113.543 136.62 113.543ZM146.779 113.303V102.163H143.079V99.0032H154.599V102.163H150.899V113.303H146.779ZM154.073 113.303L158.653 99.0032H163.953L168.493 113.303H164.153L163.393 110.643H158.653L157.893 113.303H154.073ZM161.033 102.323L159.453 107.823H162.593L161.033 102.323ZM170.235 113.303V99.0032H174.855L179.435 107.063V99.0032H183.015V113.303H179.055L173.835 104.323V113.303H170.235ZM190.002 110.143H190.942C192.155 110.143 193.042 109.823 193.602 109.183C194.175 108.53 194.462 107.537 194.462 106.203V106.043C194.462 104.683 194.175 103.697 193.602 103.083C193.042 102.47 192.142 102.163 190.902 102.163H190.002V110.143ZM185.882 113.303V99.0032H191.082C193.602 99.0032 195.508 99.6099 196.802 100.823C198.095 102.023 198.742 103.743 198.742 105.983V106.143C198.742 108.397 198.082 110.157 196.762 111.423C195.455 112.677 193.555 113.303 191.062 113.303H185.882ZM199.022 113.303L203.602 99.0032H208.902L213.442 113.303H209.102L208.342 110.643H203.602L202.842 113.303H199.022ZM205.982 102.323L204.402 107.823H207.542L205.982 102.323ZM215.183 113.303V99.0032H220.783C222.663 99.0032 224.103 99.3899 225.103 100.163C226.103 100.923 226.603 102.05 226.603 103.543V103.623C226.603 105.463 225.743 106.717 224.023 107.383L227.443 113.303H223.123L220.223 108.183H219.263V113.303H215.183ZM219.263 105.523H220.583C221.956 105.523 222.643 104.943 222.643 103.783V103.703C222.643 102.623 221.963 102.083 220.603 102.083H219.263V105.523ZM233.348 110.143H234.288C235.502 110.143 236.388 109.823 236.948 109.183C237.522 108.53 237.808 107.537 237.808 106.203V106.043C237.808 104.683 237.522 103.697 236.948 103.083C236.388 102.47 235.488 102.163 234.248 102.163H233.348V110.143ZM229.228 113.303V99.0032H234.428C236.948 99.0032 238.855 99.6099 240.148 100.823C241.442 102.023 242.088 103.743 242.088 105.983V106.143C242.088 108.397 241.428 110.157 240.108 111.423C238.802 112.677 236.902 113.303 234.408 113.303H229.228Z" fill="white"/>
<g clip-path="url(#clip1_67_6777)">
<path d="M119.133 139.295C120.392 139.295 121.389 138.863 122.125 137.999C122.872 137.135 123.245 136.005 123.245 134.607V134.479C123.245 133.146 122.872 132.042 122.125 131.167C121.389 130.282 120.381 129.839 119.101 129.839C117.8 129.839 116.776 130.271 116.029 131.135C115.282 131.999 114.909 133.125 114.909 134.511V134.639C114.909 136.005 115.309 137.125 116.109 137.999C116.92 138.863 117.928 139.295 119.133 139.295ZM119.133 140.447C117.469 140.447 116.109 139.893 115.053 138.783C113.997 137.663 113.469 136.287 113.469 134.655V134.527C113.469 132.874 113.992 131.493 115.037 130.383C116.093 129.274 117.448 128.719 119.101 128.719C120.754 128.719 122.098 129.274 123.133 130.383C124.168 131.482 124.685 132.853 124.685 134.495V134.623C124.685 136.266 124.168 137.647 123.133 138.767C122.098 139.887 120.765 140.447 119.133 140.447ZM127.002 140.303V131.935H128.33V133.439C128.618 132.917 128.97 132.517 129.386 132.239C129.812 131.962 130.378 131.813 131.082 131.791V133.039C130.164 133.082 129.476 133.295 129.018 133.679C128.559 134.063 128.33 134.741 128.33 135.711V140.303H127.002ZM136.227 143.359C135.064 143.359 134.168 143.119 133.539 142.639C132.92 142.17 132.552 141.551 132.435 140.783H133.795C133.987 141.754 134.792 142.239 136.211 142.239C137.064 142.239 137.726 142.026 138.195 141.599C138.664 141.183 138.899 140.538 138.899 139.663V138.447C138.643 138.885 138.254 139.258 137.731 139.567C137.208 139.877 136.654 140.031 136.067 140.031C134.968 140.031 134.056 139.658 133.331 138.911C132.616 138.165 132.259 137.215 132.259 136.063V135.951C132.259 134.789 132.627 133.807 133.363 133.007C134.099 132.197 135.032 131.791 136.163 131.791C137.4 131.791 138.312 132.287 138.899 133.279V131.935H140.227V139.743C140.216 140.927 139.848 141.823 139.123 142.431C138.398 143.05 137.432 143.359 136.227 143.359ZM136.211 138.927C137.011 138.927 137.667 138.666 138.179 138.143C138.691 137.61 138.947 136.885 138.947 135.967V135.855C138.947 134.927 138.707 134.202 138.227 133.679C137.758 133.157 137.112 132.895 136.291 132.895C135.47 132.895 134.819 133.173 134.339 133.727C133.87 134.271 133.635 134.991 133.635 135.887V136.015C133.635 136.901 133.88 137.61 134.371 138.143C134.872 138.666 135.486 138.927 136.211 138.927ZM145.11 140.447C144.289 140.447 143.617 140.245 143.094 139.839C142.582 139.423 142.326 138.805 142.326 137.983C142.326 137.087 142.721 136.431 143.51 136.015C144.31 135.599 145.313 135.391 146.518 135.391H147.718V134.783C147.718 134.111 147.58 133.631 147.302 133.343C147.025 133.045 146.566 132.895 145.926 132.895C144.774 132.895 144.134 133.397 144.006 134.399H142.678C142.764 133.503 143.116 132.847 143.734 132.431C144.353 132.005 145.105 131.791 145.99 131.791C148.028 131.791 149.046 132.789 149.046 134.783V140.303H147.718V139.247C147.078 140.047 146.209 140.447 145.11 140.447ZM145.238 139.391C145.964 139.391 146.556 139.215 147.014 138.863C147.484 138.501 147.718 138.005 147.718 137.375V136.335H146.566C144.625 136.335 143.654 136.885 143.654 137.983C143.654 138.922 144.182 139.391 145.238 139.391ZM151.755 140.303V131.935H153.083V133.263C153.286 132.837 153.622 132.485 154.091 132.207C154.56 131.93 155.12 131.791 155.771 131.791C156.688 131.791 157.408 132.063 157.931 132.607C158.454 133.151 158.715 134.005 158.715 135.167V140.303H157.387V135.071C157.387 134.335 157.227 133.797 156.907 133.455C156.587 133.114 156.091 132.943 155.419 132.943C154.768 132.943 154.214 133.146 153.755 133.551C153.307 133.957 153.083 134.517 153.083 135.231V140.303H151.755ZM161.449 140.303V131.935H162.777V140.303H161.449ZM162.697 129.935C162.527 130.106 162.324 130.191 162.089 130.191C161.855 130.191 161.647 130.106 161.465 129.935C161.295 129.765 161.209 129.557 161.209 129.311C161.209 129.066 161.295 128.858 161.465 128.687C161.647 128.517 161.855 128.431 162.089 128.431C162.324 128.431 162.527 128.517 162.697 128.687C162.879 128.858 162.969 129.066 162.969 129.311C162.969 129.557 162.879 129.765 162.697 129.935ZM164.588 140.303V140.111L169.532 133.055H165.068V131.935H171.58V132.175L166.748 139.135H171.516V140.303H164.588ZM176.776 140.447C175.581 140.447 174.605 140.063 173.848 139.295C173.101 138.517 172.728 137.487 172.728 136.207V136.079C172.728 134.821 173.09 133.791 173.816 132.991C174.552 132.191 175.496 131.791 176.648 131.791C177.714 131.791 178.605 132.138 179.32 132.831C180.045 133.514 180.408 134.554 180.408 135.951V136.383H174.104C174.136 137.343 174.376 138.079 174.824 138.591C175.282 139.093 175.938 139.343 176.792 139.343C178.104 139.343 178.845 138.858 179.016 137.887H180.344C180.205 138.709 179.816 139.343 179.176 139.791C178.536 140.229 177.736 140.447 176.776 140.447ZM174.152 135.311H179.048C178.93 133.701 178.13 132.895 176.648 132.895C175.976 132.895 175.421 133.114 174.984 133.551C174.546 133.978 174.269 134.565 174.152 135.311ZM188.976 140.447C188.155 140.447 187.483 140.245 186.96 139.839C186.448 139.423 186.192 138.805 186.192 137.983C186.192 137.087 186.587 136.431 187.376 136.015C188.176 135.599 189.179 135.391 190.384 135.391H191.584V134.783C191.584 134.111 191.445 133.631 191.168 133.343C190.891 133.045 190.432 132.895 189.792 132.895C188.64 132.895 188 133.397 187.872 134.399H186.544C186.629 133.503 186.981 132.847 187.6 132.431C188.219 132.005 188.971 131.791 189.856 131.791C191.893 131.791 192.912 132.789 192.912 134.783V140.303H191.584V139.247C190.944 140.047 190.075 140.447 188.976 140.447ZM189.104 139.391C189.829 139.391 190.421 139.215 190.88 138.863C191.349 138.501 191.584 138.005 191.584 137.375V136.335H190.432C188.491 136.335 187.52 136.885 187.52 137.983C187.52 138.922 188.048 139.391 189.104 139.391ZM199.093 140.447C197.909 140.447 196.927 140.063 196.149 139.295C195.381 138.517 194.997 137.487 194.997 136.207V136.079C194.997 134.821 195.386 133.791 196.165 132.991C196.954 132.191 197.919 131.791 199.061 131.791C200.021 131.791 200.837 132.031 201.509 132.511C202.181 132.981 202.575 133.717 202.693 134.719H201.381C201.189 133.503 200.415 132.895 199.061 132.895C198.282 132.895 197.637 133.189 197.125 133.775C196.623 134.351 196.373 135.119 196.373 136.079V136.207C196.373 137.21 196.618 137.983 197.109 138.527C197.61 139.071 198.277 139.343 199.109 139.343C199.738 139.343 200.277 139.167 200.725 138.815C201.183 138.453 201.445 137.946 201.509 137.295H202.741C202.655 138.213 202.271 138.97 201.589 139.567C200.917 140.154 200.085 140.447 199.093 140.447ZM204.846 140.303V131.935H206.174V133.439C206.462 132.917 206.814 132.517 207.23 132.239C207.656 131.962 208.222 131.813 208.926 131.791V133.039C208.008 133.082 207.32 133.295 206.862 133.679C206.403 134.063 206.174 134.741 206.174 135.711V140.303H204.846ZM214.215 139.343C215.047 139.343 215.708 139.055 216.199 138.479C216.7 137.903 216.951 137.141 216.951 136.191V136.079C216.951 135.109 216.7 134.335 216.199 133.759C215.708 133.183 215.047 132.895 214.215 132.895C213.372 132.895 212.705 133.183 212.215 133.759C211.724 134.335 211.479 135.103 211.479 136.063V136.191C211.479 137.151 211.724 137.919 212.215 138.495C212.705 139.061 213.372 139.343 214.215 139.343ZM214.199 140.447C213.015 140.447 212.033 140.047 211.255 139.247C210.487 138.437 210.103 137.418 210.103 136.191V136.063C210.103 134.815 210.487 133.791 211.255 132.991C212.033 132.191 213.02 131.791 214.215 131.791C215.409 131.791 216.391 132.191 217.159 132.991C217.937 133.781 218.327 134.799 218.327 136.047V136.175C218.327 137.434 217.937 138.463 217.159 139.263C216.38 140.053 215.393 140.447 214.199 140.447ZM223.075 140.447C222.072 140.447 221.283 140.207 220.707 139.727C220.142 139.247 219.838 138.581 219.795 137.727H221.091C221.198 138.805 221.854 139.343 223.059 139.343C224.275 139.343 224.883 138.901 224.883 138.015C224.883 137.599 224.728 137.295 224.419 137.103C224.12 136.901 223.624 136.735 222.931 136.607C221.843 136.405 221.086 136.127 220.659 135.775C220.232 135.413 220.019 134.869 220.019 134.143C220.019 133.418 220.307 132.847 220.883 132.431C221.47 132.005 222.126 131.791 222.851 131.791C224.664 131.791 225.672 132.597 225.875 134.207H224.595C224.499 133.749 224.312 133.418 224.035 133.215C223.758 133.002 223.358 132.895 222.835 132.895C222.355 132.895 221.971 133.007 221.683 133.231C221.395 133.445 221.251 133.733 221.251 134.095C221.251 134.479 221.384 134.762 221.651 134.943C221.928 135.125 222.446 135.285 223.203 135.423C223.704 135.519 224.104 135.615 224.403 135.711C224.712 135.797 225.011 135.93 225.299 136.111C225.598 136.293 225.811 136.533 225.939 136.831C226.078 137.119 226.147 137.477 226.147 137.903C226.147 138.682 225.88 139.301 225.347 139.759C224.824 140.218 224.067 140.447 223.075 140.447ZM230.863 140.447C229.86 140.447 229.071 140.207 228.495 139.727C227.929 139.247 227.625 138.581 227.583 137.727H228.879C228.985 138.805 229.641 139.343 230.847 139.343C232.063 139.343 232.671 138.901 232.671 138.015C232.671 137.599 232.516 137.295 232.207 137.103C231.908 136.901 231.412 136.735 230.719 136.607C229.631 136.405 228.873 136.127 228.447 135.775C228.02 135.413 227.807 134.869 227.807 134.143C227.807 133.418 228.095 132.847 228.671 132.431C229.257 132.005 229.913 131.791 230.639 131.791C232.452 131.791 233.46 132.597 233.663 134.207H232.383C232.287 133.749 232.1 133.418 231.823 133.215C231.545 133.002 231.145 132.895 230.623 132.895C230.143 132.895 229.759 133.007 229.471 133.231C229.183 133.445 229.039 133.733 229.039 134.095C229.039 134.479 229.172 134.762 229.439 134.943C229.716 135.125 230.233 135.285 230.991 135.423C231.492 135.519 231.892 135.615 232.191 135.711C232.5 135.797 232.799 135.93 233.087 136.111C233.385 136.293 233.599 136.533 233.727 136.831C233.865 137.119 233.935 137.477 233.935 137.903C233.935 138.682 233.668 139.301 233.135 139.759C232.612 140.218 231.855 140.447 230.863 140.447ZM242.488 140.447C241.667 140.447 240.995 140.245 240.472 139.839C239.96 139.423 239.704 138.805 239.704 137.983C239.704 137.087 240.099 136.431 240.888 136.015C241.688 135.599 242.691 135.391 243.896 135.391H245.096V134.783C245.096 134.111 244.958 133.631 244.68 133.343C244.403 133.045 243.944 132.895 243.304 132.895C242.152 132.895 241.512 133.397 241.384 134.399H240.056C240.142 133.503 240.494 132.847 241.112 132.431C241.731 132.005 242.483 131.791 243.368 131.791C245.406 131.791 246.424 132.789 246.424 134.783V140.303H245.096V139.247C244.456 140.047 243.587 140.447 242.488 140.447ZM242.616 139.391C243.342 139.391 243.934 139.215 244.392 138.863C244.862 138.501 245.096 138.005 245.096 137.375V136.335H243.944C242.003 136.335 241.032 136.885 241.032 137.983C241.032 138.922 241.56 139.391 242.616 139.391ZM249.165 140.303V127.935H250.509V140.303H249.165ZM253.359 140.303V127.935H254.703V140.303H253.359ZM138.89 163.447C138.069 163.447 137.397 163.245 136.874 162.839C136.362 162.423 136.106 161.805 136.106 160.983C136.106 160.087 136.501 159.431 137.29 159.015C138.09 158.599 139.093 158.391 140.298 158.391H141.498V157.783C141.498 157.111 141.359 156.631 141.082 156.343C140.805 156.045 140.346 155.895 139.706 155.895C138.554 155.895 137.914 156.397 137.786 157.399H136.458C136.543 156.503 136.895 155.847 137.514 155.431C138.133 155.005 138.885 154.791 139.77 154.791C141.807 154.791 142.826 155.789 142.826 157.783V163.303H141.498V162.247C140.858 163.047 139.989 163.447 138.89 163.447ZM139.018 162.391C139.743 162.391 140.335 162.215 140.794 161.863C141.263 161.501 141.498 161.005 141.498 160.375V159.335H140.346C138.405 159.335 137.434 159.885 137.434 160.983C137.434 161.922 137.962 162.391 139.018 162.391ZM145.535 166.215V154.935H146.863V156.343C147.119 155.917 147.508 155.554 148.031 155.255C148.553 154.946 149.108 154.791 149.695 154.791C150.815 154.791 151.727 155.175 152.431 155.943C153.145 156.701 153.503 157.719 153.503 158.999V159.127C153.503 160.418 153.151 161.463 152.447 162.263C151.753 163.053 150.836 163.447 149.695 163.447C149.044 163.447 148.473 163.309 147.983 163.031C147.492 162.743 147.119 162.375 146.863 161.927V166.215H145.535ZM149.567 162.343C150.399 162.343 151.033 162.071 151.471 161.527C151.908 160.983 152.127 160.205 152.127 159.191V159.063C152.127 158.05 151.881 157.271 151.391 156.727C150.911 156.173 150.297 155.895 149.551 155.895C148.74 155.895 148.079 156.167 147.567 156.711C147.065 157.245 146.815 158.029 146.815 159.063V159.191C146.815 160.226 147.06 161.01 147.551 161.543C148.052 162.077 148.724 162.343 149.567 162.343ZM155.666 166.215V154.935H156.994V156.343C157.25 155.917 157.639 155.554 158.162 155.255C158.685 154.946 159.239 154.791 159.826 154.791C160.946 154.791 161.858 155.175 162.562 155.943C163.277 156.701 163.634 157.719 163.634 158.999V159.127C163.634 160.418 163.282 161.463 162.578 162.263C161.885 163.053 160.967 163.447 159.826 163.447C159.175 163.447 158.605 163.309 158.114 163.031C157.623 162.743 157.25 162.375 156.994 161.927V166.215H155.666ZM159.698 162.343C160.53 162.343 161.165 162.071 161.602 161.527C162.039 160.983 162.258 160.205 162.258 159.191V159.063C162.258 158.05 162.013 157.271 161.522 156.727C161.042 156.173 160.429 155.895 159.682 155.895C158.871 155.895 158.21 156.167 157.698 156.711C157.197 157.245 156.946 158.029 156.946 159.063V159.191C156.946 160.226 157.191 161.01 157.682 161.543C158.183 162.077 158.855 162.343 159.698 162.343ZM168.389 163.447C167.386 163.447 166.597 163.207 166.021 162.727C165.456 162.247 165.152 161.581 165.109 160.727H166.405C166.512 161.805 167.168 162.343 168.373 162.343C169.589 162.343 170.197 161.901 170.197 161.015C170.197 160.599 170.042 160.295 169.733 160.103C169.434 159.901 168.938 159.735 168.245 159.607C167.157 159.405 166.4 159.127 165.973 158.775C165.546 158.413 165.333 157.869 165.333 157.143C165.333 156.418 165.621 155.847 166.197 155.431C166.784 155.005 167.44 154.791 168.165 154.791C169.978 154.791 170.986 155.597 171.189 157.207H169.909C169.813 156.749 169.626 156.418 169.349 156.215C169.072 156.002 168.672 155.895 168.149 155.895C167.669 155.895 167.285 156.007 166.997 156.231C166.709 156.445 166.565 156.733 166.565 157.095C166.565 157.479 166.698 157.762 166.965 157.943C167.242 158.125 167.76 158.285 168.517 158.423C169.018 158.519 169.418 158.615 169.717 158.711C170.026 158.797 170.325 158.93 170.613 159.111C170.912 159.293 171.125 159.533 171.253 159.831C171.392 160.119 171.461 160.477 171.461 160.903C171.461 161.682 171.194 162.301 170.661 162.759C170.138 163.218 169.381 163.447 168.389 163.447ZM182.079 163.447C181.428 163.447 180.858 163.309 180.367 163.031C179.876 162.743 179.503 162.375 179.247 161.927V163.303H177.919V150.935H179.247V156.343C179.503 155.917 179.892 155.554 180.415 155.255C180.938 154.946 181.492 154.791 182.079 154.791C183.199 154.791 184.111 155.175 184.815 155.943C185.53 156.701 185.887 157.719 185.887 158.999V159.127C185.887 160.418 185.535 161.463 184.831 162.263C184.138 163.053 183.22 163.447 182.079 163.447ZM181.951 162.343C182.783 162.343 183.418 162.071 183.855 161.527C184.292 160.983 184.511 160.205 184.511 159.191V159.063C184.511 158.05 184.266 157.271 183.775 156.727C183.295 156.173 182.682 155.895 181.935 155.895C181.124 155.895 180.463 156.167 179.951 156.711C179.45 157.245 179.199 158.029 179.199 159.063V159.191C179.199 160.226 179.444 161.01 179.935 161.543C180.436 162.077 181.108 162.343 181.951 162.343ZM188.646 166.215L190.23 162.439L186.95 154.935H188.374L190.934 160.935L193.254 154.935H194.614L189.99 166.215H188.646ZM200.797 163.303V150.935H202.125V156.263C202.328 155.837 202.664 155.485 203.133 155.207C203.602 154.93 204.162 154.791 204.813 154.791C205.73 154.791 206.45 155.063 206.973 155.607C207.496 156.151 207.757 157.005 207.757 158.167V163.303H206.429V158.071C206.429 157.335 206.269 156.797 205.949 156.455C205.629 156.114 205.133 155.943 204.461 155.943C203.81 155.943 203.256 156.146 202.797 156.551C202.349 156.957 202.125 157.517 202.125 158.231V163.303H200.797ZM212.556 163.447C211.734 163.447 211.062 163.245 210.54 162.839C210.028 162.423 209.772 161.805 209.772 160.983C209.772 160.087 210.166 159.431 210.956 159.015C211.756 158.599 212.758 158.391 213.964 158.391H215.164V157.783C215.164 157.111 215.025 156.631 214.748 156.343C214.47 156.045 214.012 155.895 213.372 155.895C212.22 155.895 211.58 156.397 211.452 157.399H210.124C210.209 156.503 210.561 155.847 211.18 155.431C211.798 155.005 212.55 154.791 213.436 154.791C215.473 154.791 216.492 155.789 216.492 157.783V163.303H215.164V162.247C214.524 163.047 213.654 163.447 212.556 163.447ZM212.684 162.391C213.409 162.391 214.001 162.215 214.46 161.863C214.929 161.501 215.164 161.005 215.164 160.375V159.335H214.012C212.07 159.335 211.1 159.885 211.1 160.983C211.1 161.922 211.628 162.391 212.684 162.391ZM219.2 163.303V154.935H220.528V156.263C220.731 155.837 221.067 155.485 221.536 155.207C222.006 154.93 222.566 154.791 223.216 154.791C224.134 154.791 224.854 155.063 225.376 155.607C225.899 156.151 226.16 157.005 226.16 158.167V163.303H224.832V158.071C224.832 157.335 224.672 156.797 224.352 156.455C224.032 156.114 223.536 155.943 222.864 155.943C222.214 155.943 221.659 156.146 221.2 156.551C220.752 156.957 220.528 157.517 220.528 158.231V163.303H219.2ZM232.015 163.447C230.895 163.447 229.983 163.074 229.279 162.327C228.585 161.581 228.239 160.567 228.239 159.287V159.159C228.239 157.879 228.601 156.834 229.327 156.023C230.052 155.202 230.991 154.791 232.143 154.791C233.38 154.791 234.292 155.287 234.879 156.279V150.935H236.207V163.303H234.879V161.863C234.623 162.29 234.228 162.663 233.695 162.983C233.161 163.293 232.601 163.447 232.015 163.447ZM232.159 162.343C232.98 162.343 233.647 162.077 234.159 161.543C234.671 160.999 234.927 160.21 234.927 159.175V159.047C234.927 158.002 234.692 157.218 234.223 156.695C233.764 156.162 233.113 155.895 232.271 155.895C231.439 155.895 230.788 156.178 230.319 156.743C229.849 157.298 229.615 158.082 229.615 159.095V159.223C229.615 160.237 229.849 161.01 230.319 161.543C230.799 162.077 231.412 162.343 232.159 162.343Z" fill="white"/>
</g>
</g>
<g clip-path="url(#clip2_67_6777)">
<g clip-path="url(#clip3_67_6777)">
<path d="M115.932 253.803V215.841L105.868 222.057V209.403L118.004 200.893H131.102V253.803H115.932ZM164.246 242.925C167.453 242.925 169.772 241.741 171.202 239.373C172.633 237.005 173.348 233.33 173.348 228.347V226.201C173.348 221.317 172.608 217.667 171.128 215.249C169.648 212.832 167.305 211.623 164.098 211.623C157.932 211.623 154.848 216.483 154.848 226.201V228.421C154.848 233.355 155.588 237.005 157.068 239.373C158.598 241.741 160.99 242.925 164.246 242.925ZM163.802 254.691C156.353 254.691 150.458 252.397 146.116 247.809C141.824 243.172 139.678 236.734 139.678 228.495V226.275C139.678 218.135 141.948 211.747 146.486 207.109C151.025 202.472 156.896 200.153 164.098 200.153C171.35 200.153 177.221 202.398 181.71 206.887C186.249 211.327 188.518 217.691 188.518 225.979V228.051C188.518 236.389 186.298 242.925 181.858 247.661C177.418 252.348 171.4 254.691 163.802 254.691Z" fill="white"/>
</g>
<g clip-path="url(#clip4_67_6777)">
<g clip-path="url(#clip5_67_6777)">
<path d="M207.26 223.003V220.503C205.58 220.383 204.293 219.91 203.4 219.083C202.52 218.243 202.047 217.143 201.98 215.783H205.68C205.8 216.837 206.327 217.463 207.26 217.663V214.743C205.5 214.49 204.233 214.017 203.46 213.323C202.687 212.617 202.3 211.577 202.3 210.203C202.3 208.99 202.747 207.983 203.64 207.183C204.533 206.383 205.74 205.93 207.26 205.823V204.043H208.82V205.843C211.833 206.097 213.453 207.537 213.68 210.163H210.06C209.927 209.35 209.513 208.85 208.82 208.663V211.423C210.487 211.663 211.747 212.11 212.6 212.763C213.453 213.417 213.88 214.43 213.88 215.803C213.88 217.097 213.453 218.177 212.6 219.043C211.747 219.91 210.487 220.397 208.82 220.503V223.003H207.26ZM210.16 216.243C210.16 215.897 210.067 215.637 209.88 215.463C209.693 215.277 209.34 215.123 208.82 215.003V217.663C209.713 217.477 210.16 217.003 210.16 216.243ZM205.9 209.903C205.9 210.263 205.993 210.543 206.18 210.743C206.38 210.93 206.74 211.077 207.26 211.183V208.623C206.353 208.783 205.9 209.21 205.9 209.903Z" fill="white"/>
</g>
<g clip-path="url(#clip6_67_6777)">
<path d="M202.94 244.303V232.863H206.188C207.372 232.863 208.332 233.141 209.068 233.695C209.815 234.239 210.188 235.077 210.188 236.207V236.271C210.188 237.423 209.815 238.277 209.068 238.831C208.332 239.375 207.372 239.647 206.188 239.647H204.332V244.303H202.94ZM204.332 238.543H206.284C207.095 238.543 207.713 238.351 208.14 237.967C208.577 237.573 208.796 237.007 208.796 236.271V236.207C208.796 234.725 207.959 233.983 206.284 233.983H204.332V238.543ZM215.431 244.447C214.236 244.447 213.26 244.063 212.503 243.295C211.756 242.517 211.383 241.487 211.383 240.207V240.079C211.383 238.821 211.745 237.791 212.471 236.991C213.207 236.191 214.151 235.791 215.303 235.791C216.369 235.791 217.26 236.138 217.975 236.831C218.7 237.514 219.063 238.554 219.063 239.951V240.383H212.759C212.791 241.343 213.031 242.079 213.479 242.591C213.937 243.093 214.593 243.343 215.447 243.343C216.759 243.343 217.5 242.858 217.671 241.887H218.999C218.86 242.709 218.471 243.343 217.831 243.791C217.191 244.229 216.391 244.447 215.431 244.447ZM212.807 239.311H217.703C217.585 237.701 216.785 236.895 215.303 236.895C214.631 236.895 214.076 237.114 213.639 237.551C213.201 237.978 212.924 238.565 212.807 239.311ZM221.2 244.303V235.935H222.528V237.439C222.816 236.917 223.168 236.517 223.584 236.239C224.011 235.962 224.576 235.813 225.28 235.791V237.039C224.363 237.082 223.675 237.295 223.216 237.679C222.758 238.063 222.528 238.741 222.528 239.711V244.303H221.2ZM231.746 244.303V232.863H233.682L237.218 241.775L240.642 232.863H242.562V244.303H241.17V234.671L237.378 244.303H236.946L233.026 234.671V244.303H231.746ZM248.941 243.343C249.773 243.343 250.435 243.055 250.925 242.479C251.427 241.903 251.677 241.141 251.677 240.191V240.079C251.677 239.109 251.427 238.335 250.925 237.759C250.435 237.183 249.773 236.895 248.941 236.895C248.099 236.895 247.432 237.183 246.941 237.759C246.451 238.335 246.205 239.103 246.205 240.063V240.191C246.205 241.151 246.451 241.919 246.941 242.495C247.432 243.061 248.099 243.343 248.941 243.343ZM248.925 244.447C247.741 244.447 246.76 244.047 245.981 243.247C245.213 242.437 244.829 241.418 244.829 240.191V240.063C244.829 238.815 245.213 237.791 245.981 236.991C246.76 236.191 247.747 235.791 248.941 235.791C250.136 235.791 251.117 236.191 251.885 236.991C252.664 237.781 253.053 238.799 253.053 240.047V240.175C253.053 241.434 252.664 242.463 251.885 243.263C251.107 244.053 250.12 244.447 248.925 244.447ZM255.21 244.303V235.935H256.538V237.263C256.74 236.837 257.076 236.485 257.546 236.207C258.015 235.93 258.575 235.791 259.226 235.791C260.143 235.791 260.863 236.063 261.386 236.607C261.908 237.151 262.17 238.005 262.17 239.167V244.303H260.842V239.071C260.842 238.335 260.682 237.797 260.362 237.455C260.042 237.114 259.546 236.943 258.874 236.943C258.223 236.943 257.668 237.146 257.21 237.551C256.762 237.957 256.538 238.517 256.538 239.231V244.303H255.21ZM267.416 244.415C266.68 244.415 266.12 244.218 265.736 243.823C265.352 243.429 265.16 242.89 265.16 242.207V237.055H263.96V235.935H265.16V234.031H266.488V235.935H268.44V237.055H266.488V242.079C266.488 242.89 266.835 243.295 267.528 243.295C267.912 243.295 268.253 243.237 268.552 243.119V244.239C268.221 244.357 267.843 244.415 267.416 244.415ZM270.66 244.303V231.935H271.988V237.263C272.19 236.837 272.526 236.485 272.996 236.207C273.465 235.93 274.025 235.791 274.676 235.791C275.593 235.791 276.313 236.063 276.836 236.607C277.358 237.151 277.62 238.005 277.62 239.167V244.303H276.292V239.071C276.292 238.335 276.132 237.797 275.812 237.455C275.492 237.114 274.996 236.943 274.324 236.943C273.673 236.943 273.118 237.146 272.66 237.551C272.212 237.957 271.988 238.517 271.988 239.231V244.303H270.66Z" fill="white"/>
</g>
</g>
</g>
<g clip-path="url(#clip7_67_6777)">
<path d="M133.35 319.303V308.578H136.395C137.505 308.578 138.405 308.838 139.095 309.358C139.795 309.868 140.145 310.653 140.145 311.713V311.773C140.145 312.853 139.795 313.653 139.095 314.173C138.405 314.683 137.505 314.938 136.395 314.938H134.655V319.303H133.35ZM134.655 313.903H136.485C137.245 313.903 137.825 313.723 138.225 313.363C138.635 312.993 138.84 312.463 138.84 311.773V311.713C138.84 310.323 138.055 309.628 136.485 309.628H134.655V313.903ZM142.176 319.303V311.458H143.421V312.868C143.691 312.378 144.021 312.003 144.411 311.743C144.811 311.483 145.341 311.343 146.001 311.323V312.493C145.141 312.533 144.496 312.733 144.066 313.093C143.636 313.453 143.421 314.088 143.421 314.998V319.303H142.176ZM148.045 319.303V311.458H149.29V319.303H148.045ZM149.215 309.583C149.055 309.743 148.865 309.823 148.645 309.823C148.425 309.823 148.23 309.743 148.06 309.583C147.9 309.423 147.82 309.228 147.82 308.998C147.82 308.768 147.9 308.573 148.06 308.413C148.23 308.253 148.425 308.173 148.645 308.173C148.865 308.173 149.055 308.253 149.215 308.413C149.385 308.573 149.47 308.768 149.47 308.998C149.47 309.228 149.385 309.423 149.215 309.583ZM155.294 319.438C154.184 319.438 153.264 319.078 152.534 318.358C151.814 317.628 151.454 316.663 151.454 315.463V315.343C151.454 314.163 151.819 313.198 152.549 312.448C153.289 311.698 154.194 311.323 155.264 311.323C156.164 311.323 156.929 311.548 157.559 311.998C158.189 312.438 158.559 313.128 158.669 314.068H157.439C157.259 312.928 156.534 312.358 155.264 312.358C154.534 312.358 153.929 312.633 153.449 313.183C152.979 313.723 152.744 314.443 152.744 315.343V315.463C152.744 316.403 152.974 317.128 153.434 317.638C153.904 318.148 154.529 318.403 155.309 318.403C155.899 318.403 156.404 318.238 156.824 317.908C157.254 317.568 157.499 317.093 157.559 316.483H158.714C158.634 317.343 158.274 318.053 157.634 318.613C157.004 319.163 156.224 319.438 155.294 319.438ZM160.823 319.303V311.458H162.068V319.303H160.823ZM161.993 309.583C161.833 309.743 161.643 309.823 161.423 309.823C161.203 309.823 161.008 309.743 160.838 309.583C160.678 309.423 160.598 309.228 160.598 308.998C160.598 308.768 160.678 308.573 160.838 308.413C161.008 308.253 161.203 308.173 161.423 308.173C161.643 308.173 161.833 308.253 161.993 308.413C162.163 308.573 162.248 308.768 162.248 308.998C162.248 309.228 162.163 309.423 161.993 309.583ZM164.817 319.303V311.458H166.062V312.703C166.252 312.303 166.567 311.973 167.007 311.713C167.447 311.453 167.972 311.323 168.582 311.323C169.442 311.323 170.117 311.578 170.607 312.088C171.097 312.598 171.342 313.398 171.342 314.488V319.303H170.097V314.398C170.097 313.708 169.947 313.203 169.647 312.883C169.347 312.563 168.882 312.403 168.252 312.403C167.642 312.403 167.122 312.593 166.692 312.973C166.272 313.353 166.062 313.878 166.062 314.548V319.303H164.817ZM177.116 322.168C176.026 322.168 175.186 321.943 174.596 321.493C174.016 321.053 173.671 320.473 173.561 319.753H174.836C175.016 320.663 175.771 321.118 177.101 321.118C177.901 321.118 178.521 320.918 178.961 320.518C179.401 320.128 179.621 319.523 179.621 318.703V317.563C179.381 317.973 179.016 318.323 178.526 318.613C178.036 318.903 177.516 319.048 176.966 319.048C175.936 319.048 175.081 318.698 174.401 317.998C173.731 317.298 173.396 316.408 173.396 315.328V315.223C173.396 314.133 173.741 313.213 174.431 312.463C175.121 311.703 175.996 311.323 177.056 311.323C178.216 311.323 179.071 311.788 179.621 312.718V311.458H180.866V318.778C180.856 319.888 180.511 320.728 179.831 321.298C179.151 321.878 178.246 322.168 177.116 322.168ZM177.101 318.013C177.851 318.013 178.466 317.768 178.946 317.278C179.426 316.778 179.666 316.098 179.666 315.238V315.133C179.666 314.263 179.441 313.583 178.991 313.093C178.551 312.603 177.946 312.358 177.176 312.358C176.406 312.358 175.796 312.618 175.346 313.138C174.906 313.648 174.686 314.323 174.686 315.163V315.283C174.686 316.113 174.916 316.778 175.376 317.278C175.846 317.768 176.421 318.013 177.101 318.013ZM187.846 319.303V308.578H194.116V309.643H189.151V313.438H193.021V314.503H189.151V319.303H187.846ZM198.9 319.438C197.78 319.438 196.865 319.078 196.155 318.358C195.455 317.628 195.105 316.663 195.105 315.463V315.343C195.105 314.163 195.445 313.198 196.125 312.448C196.815 311.698 197.7 311.323 198.78 311.323C199.78 311.323 200.615 311.648 201.285 312.298C201.965 312.938 202.305 313.913 202.305 315.223V315.628H196.395C196.425 316.528 196.65 317.218 197.07 317.698C197.5 318.168 198.115 318.403 198.915 318.403C200.145 318.403 200.84 317.948 201 317.038H202.245C202.115 317.808 201.75 318.403 201.15 318.823C200.55 319.233 199.8 319.438 198.9 319.438ZM196.44 314.623H201.03C200.92 313.113 200.17 312.358 198.78 312.358C198.15 312.358 197.63 312.563 197.22 312.973C196.81 313.373 196.55 313.923 196.44 314.623ZM206.454 319.438C205.684 319.438 205.054 319.248 204.564 318.868C204.084 318.478 203.844 317.898 203.844 317.128C203.844 316.288 204.214 315.673 204.954 315.283C205.704 314.893 206.644 314.698 207.774 314.698H208.899V314.128C208.899 313.498 208.769 313.048 208.509 312.778C208.249 312.498 207.819 312.358 207.219 312.358C206.139 312.358 205.539 312.828 205.419 313.768H204.174C204.254 312.928 204.584 312.313 205.164 311.923C205.744 311.523 206.449 311.323 207.279 311.323C209.189 311.323 210.144 312.258 210.144 314.128V319.303H208.899V318.313C208.299 319.063 207.484 319.438 206.454 319.438ZM206.574 318.448C207.254 318.448 207.809 318.283 208.239 317.953C208.679 317.613 208.899 317.148 208.899 316.558V315.583H207.819C205.999 315.583 205.089 316.098 205.089 317.128C205.089 318.008 205.584 318.448 206.574 318.448ZM215.174 319.408C214.484 319.408 213.959 319.223 213.599 318.853C213.239 318.483 213.059 317.978 213.059 317.338V312.508H211.934V311.458H213.059V309.673H214.304V311.458H216.134V312.508H214.304V317.218C214.304 317.978 214.629 318.358 215.279 318.358C215.639 318.358 215.959 318.303 216.239 318.193V319.243C215.929 319.353 215.574 319.408 215.174 319.408ZM220.976 319.438C220.146 319.438 219.481 319.193 218.981 318.703C218.491 318.213 218.246 317.453 218.246 316.423V311.458H219.491V316.363C219.491 317.053 219.636 317.558 219.926 317.878C220.226 318.198 220.686 318.358 221.306 318.358C221.896 318.358 222.401 318.168 222.821 317.788C223.251 317.408 223.466 316.883 223.466 316.213V311.458H224.711V319.303H223.466V318.058C223.276 318.458 222.961 318.788 222.521 319.048C222.091 319.308 221.576 319.438 220.976 319.438ZM227.427 319.303V311.458H228.672V312.868C228.942 312.378 229.272 312.003 229.662 311.743C230.062 311.483 230.592 311.343 231.252 311.323V312.493C230.392 312.533 229.747 312.733 229.317 313.093C228.887 313.453 228.672 314.088 228.672 314.998V319.303H227.427ZM236.257 319.438C235.137 319.438 234.222 319.078 233.512 318.358C232.812 317.628 232.462 316.663 232.462 315.463V315.343C232.462 314.163 232.802 313.198 233.482 312.448C234.172 311.698 235.057 311.323 236.137 311.323C237.137 311.323 237.972 311.648 238.642 312.298C239.322 312.938 239.662 313.913 239.662 315.223V315.628H233.752C233.782 316.528 234.007 317.218 234.427 317.698C234.857 318.168 235.472 318.403 236.272 318.403C237.502 318.403 238.197 317.948 238.357 317.038H239.602C239.472 317.808 239.107 318.403 238.507 318.823C237.907 319.233 237.157 319.438 236.257 319.438ZM233.797 314.623H238.387C238.277 313.113 237.527 312.358 236.137 312.358C235.507 312.358 234.987 312.563 234.577 312.973C234.167 313.373 233.907 313.923 233.797 314.623Z" fill="white"/>
<path d="M133.35 367.303V356.578H136.395C137.505 356.578 138.405 356.838 139.095 357.358C139.795 357.868 140.145 358.653 140.145 359.713V359.773C140.145 360.853 139.795 361.653 139.095 362.173C138.405 362.683 137.505 362.938 136.395 362.938H134.655V367.303H133.35ZM134.655 361.903H136.485C137.245 361.903 137.825 361.723 138.225 361.363C138.635 360.993 138.84 360.463 138.84 359.773V359.713C138.84 358.323 138.055 357.628 136.485 357.628H134.655V361.903ZM142.176 367.303V359.458H143.421V360.868C143.691 360.378 144.021 360.003 144.411 359.743C144.811 359.483 145.341 359.343 146.001 359.323V360.493C145.141 360.533 144.496 360.733 144.066 361.093C143.636 361.453 143.421 362.088 143.421 362.998V367.303H142.176ZM148.045 367.303V359.458H149.29V367.303H148.045ZM149.215 357.583C149.055 357.743 148.865 357.823 148.645 357.823C148.425 357.823 148.23 357.743 148.06 357.583C147.9 357.423 147.82 357.228 147.82 356.998C147.82 356.768 147.9 356.573 148.06 356.413C148.23 356.253 148.425 356.173 148.645 356.173C148.865 356.173 149.055 356.253 149.215 356.413C149.385 356.573 149.47 356.768 149.47 356.998C149.47 357.228 149.385 357.423 149.215 357.583ZM155.294 367.438C154.184 367.438 153.264 367.078 152.534 366.358C151.814 365.628 151.454 364.663 151.454 363.463V363.343C151.454 362.163 151.819 361.198 152.549 360.448C153.289 359.698 154.194 359.323 155.264 359.323C156.164 359.323 156.929 359.548 157.559 359.998C158.189 360.438 158.559 361.128 158.669 362.068H157.439C157.259 360.928 156.534 360.358 155.264 360.358C154.534 360.358 153.929 360.633 153.449 361.183C152.979 361.723 152.744 362.443 152.744 363.343V363.463C152.744 364.403 152.974 365.128 153.434 365.638C153.904 366.148 154.529 366.403 155.309 366.403C155.899 366.403 156.404 366.238 156.824 365.908C157.254 365.568 157.499 365.093 157.559 364.483H158.714C158.634 365.343 158.274 366.053 157.634 366.613C157.004 367.163 156.224 367.438 155.294 367.438ZM160.823 367.303V359.458H162.068V367.303H160.823ZM161.993 357.583C161.833 357.743 161.643 357.823 161.423 357.823C161.203 357.823 161.008 357.743 160.838 357.583C160.678 357.423 160.598 357.228 160.598 356.998C160.598 356.768 160.678 356.573 160.838 356.413C161.008 356.253 161.203 356.173 161.423 356.173C161.643 356.173 161.833 356.253 161.993 356.413C162.163 356.573 162.248 356.768 162.248 356.998C162.248 357.228 162.163 357.423 161.993 357.583ZM164.817 367.303V359.458H166.062V360.703C166.252 360.303 166.567 359.973 167.007 359.713C167.447 359.453 167.972 359.323 168.582 359.323C169.442 359.323 170.117 359.578 170.607 360.088C171.097 360.598 171.342 361.398 171.342 362.488V367.303H170.097V362.398C170.097 361.708 169.947 361.203 169.647 360.883C169.347 360.563 168.882 360.403 168.252 360.403C167.642 360.403 167.122 360.593 166.692 360.973C166.272 361.353 166.062 361.878 166.062 362.548V367.303H164.817ZM177.116 370.168C176.026 370.168 175.186 369.943 174.596 369.493C174.016 369.053 173.671 368.473 173.561 367.753H174.836C175.016 368.663 175.771 369.118 177.101 369.118C177.901 369.118 178.521 368.918 178.961 368.518C179.401 368.128 179.621 367.523 179.621 366.703V365.563C179.381 365.973 179.016 366.323 178.526 366.613C178.036 366.903 177.516 367.048 176.966 367.048C175.936 367.048 175.081 366.698 174.401 365.998C173.731 365.298 173.396 364.408 173.396 363.328V363.223C173.396 362.133 173.741 361.213 174.431 360.463C175.121 359.703 175.996 359.323 177.056 359.323C178.216 359.323 179.071 359.788 179.621 360.718V359.458H180.866V366.778C180.856 367.888 180.511 368.728 179.831 369.298C179.151 369.878 178.246 370.168 177.116 370.168ZM177.101 366.013C177.851 366.013 178.466 365.768 178.946 365.278C179.426 364.778 179.666 364.098 179.666 363.238V363.133C179.666 362.263 179.441 361.583 178.991 361.093C178.551 360.603 177.946 360.358 177.176 360.358C176.406 360.358 175.796 360.618 175.346 361.138C174.906 361.648 174.686 362.323 174.686 363.163V363.283C174.686 364.113 174.916 364.778 175.376 365.278C175.846 365.768 176.421 366.013 177.101 366.013ZM187.846 367.303V356.578H194.116V357.643H189.151V361.438H193.021V362.503H189.151V367.303H187.846ZM198.9 367.438C197.78 367.438 196.865 367.078 196.155 366.358C195.455 365.628 195.105 364.663 195.105 363.463V363.343C195.105 362.163 195.445 361.198 196.125 360.448C196.815 359.698 197.7 359.323 198.78 359.323C199.78 359.323 200.615 359.648 201.285 360.298C201.965 360.938 202.305 361.913 202.305 363.223V363.628H196.395C196.425 364.528 196.65 365.218 197.07 365.698C197.5 366.168 198.115 366.403 198.915 366.403C200.145 366.403 200.84 365.948 201 365.038H202.245C202.115 365.808 201.75 366.403 201.15 366.823C200.55 367.233 199.8 367.438 198.9 367.438ZM196.44 362.623H201.03C200.92 361.113 200.17 360.358 198.78 360.358C198.15 360.358 197.63 360.563 197.22 360.973C196.81 361.373 196.55 361.923 196.44 362.623ZM206.454 367.438C205.684 367.438 205.054 367.248 204.564 366.868C204.084 366.478 203.844 365.898 203.844 365.128C203.844 364.288 204.214 363.673 204.954 363.283C205.704 362.893 206.644 362.698 207.774 362.698H208.899V362.128C208.899 361.498 208.769 361.048 208.509 360.778C208.249 360.498 207.819 360.358 207.219 360.358C206.139 360.358 205.539 360.828 205.419 361.768H204.174C204.254 360.928 204.584 360.313 205.164 359.923C205.744 359.523 206.449 359.323 207.279 359.323C209.189 359.323 210.144 360.258 210.144 362.128V367.303H208.899V366.313C208.299 367.063 207.484 367.438 206.454 367.438ZM206.574 366.448C207.254 366.448 207.809 366.283 208.239 365.953C208.679 365.613 208.899 365.148 208.899 364.558V363.583H207.819C205.999 363.583 205.089 364.098 205.089 365.128C205.089 366.008 205.584 366.448 206.574 366.448ZM215.174 367.408C214.484 367.408 213.959 367.223 213.599 366.853C213.239 366.483 213.059 365.978 213.059 365.338V360.508H211.934V359.458H213.059V357.673H214.304V359.458H216.134V360.508H214.304V365.218C214.304 365.978 214.629 366.358 215.279 366.358C215.639 366.358 215.959 366.303 216.239 366.193V367.243C215.929 367.353 215.574 367.408 215.174 367.408ZM220.976 367.438C220.146 367.438 219.481 367.193 218.981 366.703C218.491 366.213 218.246 365.453 218.246 364.423V359.458H219.491V364.363C219.491 365.053 219.636 365.558 219.926 365.878C220.226 366.198 220.686 366.358 221.306 366.358C221.896 366.358 222.401 366.168 222.821 365.788C223.251 365.408 223.466 364.883 223.466 364.213V359.458H224.711V367.303H223.466V366.058C223.276 366.458 222.961 366.788 222.521 367.048C222.091 367.308 221.576 367.438 220.976 367.438ZM227.427 367.303V359.458H228.672V360.868C228.942 360.378 229.272 360.003 229.662 359.743C230.062 359.483 230.592 359.343 231.252 359.323V360.493C230.392 360.533 229.747 360.733 229.317 361.093C228.887 361.453 228.672 362.088 228.672 362.998V367.303H227.427ZM236.257 367.438C235.137 367.438 234.222 367.078 233.512 366.358C232.812 365.628 232.462 364.663 232.462 363.463V363.343C232.462 362.163 232.802 361.198 233.482 360.448C234.172 359.698 235.057 359.323 236.137 359.323C237.137 359.323 237.972 359.648 238.642 360.298C239.322 360.938 239.662 361.913 239.662 363.223V363.628H233.752C233.782 364.528 234.007 365.218 234.427 365.698C234.857 366.168 235.472 366.403 236.272 366.403C237.502 366.403 238.197 365.948 238.357 365.038H239.602C239.472 365.808 239.107 366.403 238.507 366.823C237.907 367.233 237.157 367.438 236.257 367.438ZM233.797 362.623H238.387C238.277 361.113 237.527 360.358 236.137 360.358C235.507 360.358 234.987 360.563 234.577 360.973C234.167 361.373 233.907 361.923 233.797 362.623Z" fill="white"/>
<path d="M133.35 415.303V404.578H136.395C137.505 404.578 138.405 404.838 139.095 405.358C139.795 405.868 140.145 406.653 140.145 407.713V407.773C140.145 408.853 139.795 409.653 139.095 410.173C138.405 410.683 137.505 410.938 136.395 410.938H134.655V415.303H133.35ZM134.655 409.903H136.485C137.245 409.903 137.825 409.723 138.225 409.363C138.635 408.993 138.84 408.463 138.84 407.773V407.713C138.84 406.323 138.055 405.628 136.485 405.628H134.655V409.903ZM142.176 415.303V407.458H143.421V408.868C143.691 408.378 144.021 408.003 144.411 407.743C144.811 407.483 145.341 407.343 146.001 407.323V408.493C145.141 408.533 144.496 408.733 144.066 409.093C143.636 409.453 143.421 410.088 143.421 410.998V415.303H142.176ZM148.045 415.303V407.458H149.29V415.303H148.045ZM149.215 405.583C149.055 405.743 148.865 405.823 148.645 405.823C148.425 405.823 148.23 405.743 148.06 405.583C147.9 405.423 147.82 405.228 147.82 404.998C147.82 404.768 147.9 404.573 148.06 404.413C148.23 404.253 148.425 404.173 148.645 404.173C148.865 404.173 149.055 404.253 149.215 404.413C149.385 404.573 149.47 404.768 149.47 404.998C149.47 405.228 149.385 405.423 149.215 405.583ZM155.294 415.438C154.184 415.438 153.264 415.078 152.534 414.358C151.814 413.628 151.454 412.663 151.454 411.463V411.343C151.454 410.163 151.819 409.198 152.549 408.448C153.289 407.698 154.194 407.323 155.264 407.323C156.164 407.323 156.929 407.548 157.559 407.998C158.189 408.438 158.559 409.128 158.669 410.068H157.439C157.259 408.928 156.534 408.358 155.264 408.358C154.534 408.358 153.929 408.633 153.449 409.183C152.979 409.723 152.744 410.443 152.744 411.343V411.463C152.744 412.403 152.974 413.128 153.434 413.638C153.904 414.148 154.529 414.403 155.309 414.403C155.899 414.403 156.404 414.238 156.824 413.908C157.254 413.568 157.499 413.093 157.559 412.483H158.714C158.634 413.343 158.274 414.053 157.634 414.613C157.004 415.163 156.224 415.438 155.294 415.438ZM160.823 415.303V407.458H162.068V415.303H160.823ZM161.993 405.583C161.833 405.743 161.643 405.823 161.423 405.823C161.203 405.823 161.008 405.743 160.838 405.583C160.678 405.423 160.598 405.228 160.598 404.998C160.598 404.768 160.678 404.573 160.838 404.413C161.008 404.253 161.203 404.173 161.423 404.173C161.643 404.173 161.833 404.253 161.993 404.413C162.163 404.573 162.248 404.768 162.248 404.998C162.248 405.228 162.163 405.423 161.993 405.583ZM164.817 415.303V407.458H166.062V408.703C166.252 408.303 166.567 407.973 167.007 407.713C167.447 407.453 167.972 407.323 168.582 407.323C169.442 407.323 170.117 407.578 170.607 408.088C171.097 408.598 171.342 409.398 171.342 410.488V415.303H170.097V410.398C170.097 409.708 169.947 409.203 169.647 408.883C169.347 408.563 168.882 408.403 168.252 408.403C167.642 408.403 167.122 408.593 166.692 408.973C166.272 409.353 166.062 409.878 166.062 410.548V415.303H164.817ZM177.116 418.168C176.026 418.168 175.186 417.943 174.596 417.493C174.016 417.053 173.671 416.473 173.561 415.753H174.836C175.016 416.663 175.771 417.118 177.101 417.118C177.901 417.118 178.521 416.918 178.961 416.518C179.401 416.128 179.621 415.523 179.621 414.703V413.563C179.381 413.973 179.016 414.323 178.526 414.613C178.036 414.903 177.516 415.048 176.966 415.048C175.936 415.048 175.081 414.698 174.401 413.998C173.731 413.298 173.396 412.408 173.396 411.328V411.223C173.396 410.133 173.741 409.213 174.431 408.463C175.121 407.703 175.996 407.323 177.056 407.323C178.216 407.323 179.071 407.788 179.621 408.718V407.458H180.866V414.778C180.856 415.888 180.511 416.728 179.831 417.298C179.151 417.878 178.246 418.168 177.116 418.168ZM177.101 414.013C177.851 414.013 178.466 413.768 178.946 413.278C179.426 412.778 179.666 412.098 179.666 411.238V411.133C179.666 410.263 179.441 409.583 178.991 409.093C178.551 408.603 177.946 408.358 177.176 408.358C176.406 408.358 175.796 408.618 175.346 409.138C174.906 409.648 174.686 410.323 174.686 411.163V411.283C174.686 412.113 174.916 412.778 175.376 413.278C175.846 413.768 176.421 414.013 177.101 414.013ZM187.846 415.303V404.578H194.116V405.643H189.151V409.438H193.021V410.503H189.151V415.303H187.846ZM198.9 415.438C197.78 415.438 196.865 415.078 196.155 414.358C195.455 413.628 195.105 412.663 195.105 411.463V411.343C195.105 410.163 195.445 409.198 196.125 408.448C196.815 407.698 197.7 407.323 198.78 407.323C199.78 407.323 200.615 407.648 201.285 408.298C201.965 408.938 202.305 409.913 202.305 411.223V411.628H196.395C196.425 412.528 196.65 413.218 197.07 413.698C197.5 414.168 198.115 414.403 198.915 414.403C200.145 414.403 200.84 413.948 201 413.038H202.245C202.115 413.808 201.75 414.403 201.15 414.823C200.55 415.233 199.8 415.438 198.9 415.438ZM196.44 410.623H201.03C200.92 409.113 200.17 408.358 198.78 408.358C198.15 408.358 197.63 408.563 197.22 408.973C196.81 409.373 196.55 409.923 196.44 410.623ZM206.454 415.438C205.684 415.438 205.054 415.248 204.564 414.868C204.084 414.478 203.844 413.898 203.844 413.128C203.844 412.288 204.214 411.673 204.954 411.283C205.704 410.893 206.644 410.698 207.774 410.698H208.899V410.128C208.899 409.498 208.769 409.048 208.509 408.778C208.249 408.498 207.819 408.358 207.219 408.358C206.139 408.358 205.539 408.828 205.419 409.768H204.174C204.254 408.928 204.584 408.313 205.164 407.923C205.744 407.523 206.449 407.323 207.279 407.323C209.189 407.323 210.144 408.258 210.144 410.128V415.303H208.899V414.313C208.299 415.063 207.484 415.438 206.454 415.438ZM206.574 414.448C207.254 414.448 207.809 414.283 208.239 413.953C208.679 413.613 208.899 413.148 208.899 412.558V411.583H207.819C205.999 411.583 205.089 412.098 205.089 413.128C205.089 414.008 205.584 414.448 206.574 414.448ZM215.174 415.408C214.484 415.408 213.959 415.223 213.599 414.853C213.239 414.483 213.059 413.978 213.059 413.338V408.508H211.934V407.458H213.059V405.673H214.304V407.458H216.134V408.508H214.304V413.218C214.304 413.978 214.629 414.358 215.279 414.358C215.639 414.358 215.959 414.303 216.239 414.193V415.243C215.929 415.353 215.574 415.408 215.174 415.408ZM220.976 415.438C220.146 415.438 219.481 415.193 218.981 414.703C218.491 414.213 218.246 413.453 218.246 412.423V407.458H219.491V412.363C219.491 413.053 219.636 413.558 219.926 413.878C220.226 414.198 220.686 414.358 221.306 414.358C221.896 414.358 222.401 414.168 222.821 413.788C223.251 413.408 223.466 412.883 223.466 412.213V407.458H224.711V415.303H223.466V414.058C223.276 414.458 222.961 414.788 222.521 415.048C222.091 415.308 221.576 415.438 220.976 415.438ZM227.427 415.303V407.458H228.672V408.868C228.942 408.378 229.272 408.003 229.662 407.743C230.062 407.483 230.592 407.343 231.252 407.323V408.493C230.392 408.533 229.747 408.733 229.317 409.093C228.887 409.453 228.672 410.088 228.672 410.998V415.303H227.427ZM236.257 415.438C235.137 415.438 234.222 415.078 233.512 414.358C232.812 413.628 232.462 412.663 232.462 411.463V411.343C232.462 410.163 232.802 409.198 233.482 408.448C234.172 407.698 235.057 407.323 236.137 407.323C237.137 407.323 237.972 407.648 238.642 408.298C239.322 408.938 239.662 409.913 239.662 411.223V411.628H233.752C233.782 412.528 234.007 413.218 234.427 413.698C234.857 414.168 235.472 414.403 236.272 414.403C237.502 414.403 238.197 413.948 238.357 413.038H239.602C239.472 413.808 239.107 414.403 238.507 414.823C237.907 415.233 237.157 415.438 236.257 415.438ZM233.797 410.623H238.387C238.277 409.113 237.527 408.358 236.137 408.358C235.507 408.358 234.987 408.563 234.577 408.973C234.167 409.373 233.907 409.923 233.797 410.623Z" fill="white"/>
<path d="M133.35 463.303V452.578H136.395C137.505 452.578 138.405 452.838 139.095 453.358C139.795 453.868 140.145 454.653 140.145 455.713V455.773C140.145 456.853 139.795 457.653 139.095 458.173C138.405 458.683 137.505 458.938 136.395 458.938H134.655V463.303H133.35ZM134.655 457.903H136.485C137.245 457.903 137.825 457.723 138.225 457.363C138.635 456.993 138.84 456.463 138.84 455.773V455.713C138.84 454.323 138.055 453.628 136.485 453.628H134.655V457.903ZM142.176 463.303V455.458H143.421V456.868C143.691 456.378 144.021 456.003 144.411 455.743C144.811 455.483 145.341 455.343 146.001 455.323V456.493C145.141 456.533 144.496 456.733 144.066 457.093C143.636 457.453 143.421 458.088 143.421 458.998V463.303H142.176ZM148.045 463.303V455.458H149.29V463.303H148.045ZM149.215 453.583C149.055 453.743 148.865 453.823 148.645 453.823C148.425 453.823 148.23 453.743 148.06 453.583C147.9 453.423 147.82 453.228 147.82 452.998C147.82 452.768 147.9 452.573 148.06 452.413C148.23 452.253 148.425 452.173 148.645 452.173C148.865 452.173 149.055 452.253 149.215 452.413C149.385 452.573 149.47 452.768 149.47 452.998C149.47 453.228 149.385 453.423 149.215 453.583ZM155.294 463.438C154.184 463.438 153.264 463.078 152.534 462.358C151.814 461.628 151.454 460.663 151.454 459.463V459.343C151.454 458.163 151.819 457.198 152.549 456.448C153.289 455.698 154.194 455.323 155.264 455.323C156.164 455.323 156.929 455.548 157.559 455.998C158.189 456.438 158.559 457.128 158.669 458.068H157.439C157.259 456.928 156.534 456.358 155.264 456.358C154.534 456.358 153.929 456.633 153.449 457.183C152.979 457.723 152.744 458.443 152.744 459.343V459.463C152.744 460.403 152.974 461.128 153.434 461.638C153.904 462.148 154.529 462.403 155.309 462.403C155.899 462.403 156.404 462.238 156.824 461.908C157.254 461.568 157.499 461.093 157.559 460.483H158.714C158.634 461.343 158.274 462.053 157.634 462.613C157.004 463.163 156.224 463.438 155.294 463.438ZM160.823 463.303V455.458H162.068V463.303H160.823ZM161.993 453.583C161.833 453.743 161.643 453.823 161.423 453.823C161.203 453.823 161.008 453.743 160.838 453.583C160.678 453.423 160.598 453.228 160.598 452.998C160.598 452.768 160.678 452.573 160.838 452.413C161.008 452.253 161.203 452.173 161.423 452.173C161.643 452.173 161.833 452.253 161.993 452.413C162.163 452.573 162.248 452.768 162.248 452.998C162.248 453.228 162.163 453.423 161.993 453.583ZM164.817 463.303V455.458H166.062V456.703C166.252 456.303 166.567 455.973 167.007 455.713C167.447 455.453 167.972 455.323 168.582 455.323C169.442 455.323 170.117 455.578 170.607 456.088C171.097 456.598 171.342 457.398 171.342 458.488V463.303H170.097V458.398C170.097 457.708 169.947 457.203 169.647 456.883C169.347 456.563 168.882 456.403 168.252 456.403C167.642 456.403 167.122 456.593 166.692 456.973C166.272 457.353 166.062 457.878 166.062 458.548V463.303H164.817ZM177.116 466.168C176.026 466.168 175.186 465.943 174.596 465.493C174.016 465.053 173.671 464.473 173.561 463.753H174.836C175.016 464.663 175.771 465.118 177.101 465.118C177.901 465.118 178.521 464.918 178.961 464.518C179.401 464.128 179.621 463.523 179.621 462.703V461.563C179.381 461.973 179.016 462.323 178.526 462.613C178.036 462.903 177.516 463.048 176.966 463.048C175.936 463.048 175.081 462.698 174.401 461.998C173.731 461.298 173.396 460.408 173.396 459.328V459.223C173.396 458.133 173.741 457.213 174.431 456.463C175.121 455.703 175.996 455.323 177.056 455.323C178.216 455.323 179.071 455.788 179.621 456.718V455.458H180.866V462.778C180.856 463.888 180.511 464.728 179.831 465.298C179.151 465.878 178.246 466.168 177.116 466.168ZM177.101 462.013C177.851 462.013 178.466 461.768 178.946 461.278C179.426 460.778 179.666 460.098 179.666 459.238V459.133C179.666 458.263 179.441 457.583 178.991 457.093C178.551 456.603 177.946 456.358 177.176 456.358C176.406 456.358 175.796 456.618 175.346 457.138C174.906 457.648 174.686 458.323 174.686 459.163V459.283C174.686 460.113 174.916 460.778 175.376 461.278C175.846 461.768 176.421 462.013 177.101 462.013ZM187.846 463.303V452.578H194.116V453.643H189.151V457.438H193.021V458.503H189.151V463.303H187.846ZM198.9 463.438C197.78 463.438 196.865 463.078 196.155 462.358C195.455 461.628 195.105 460.663 195.105 459.463V459.343C195.105 458.163 195.445 457.198 196.125 456.448C196.815 455.698 197.7 455.323 198.78 455.323C199.78 455.323 200.615 455.648 201.285 456.298C201.965 456.938 202.305 457.913 202.305 459.223V459.628H196.395C196.425 460.528 196.65 461.218 197.07 461.698C197.5 462.168 198.115 462.403 198.915 462.403C200.145 462.403 200.84 461.948 201 461.038H202.245C202.115 461.808 201.75 462.403 201.15 462.823C200.55 463.233 199.8 463.438 198.9 463.438ZM196.44 458.623H201.03C200.92 457.113 200.17 456.358 198.78 456.358C198.15 456.358 197.63 456.563 197.22 456.973C196.81 457.373 196.55 457.923 196.44 458.623ZM206.454 463.438C205.684 463.438 205.054 463.248 204.564 462.868C204.084 462.478 203.844 461.898 203.844 461.128C203.844 460.288 204.214 459.673 204.954 459.283C205.704 458.893 206.644 458.698 207.774 458.698H208.899V458.128C208.899 457.498 208.769 457.048 208.509 456.778C208.249 456.498 207.819 456.358 207.219 456.358C206.139 456.358 205.539 456.828 205.419 457.768H204.174C204.254 456.928 204.584 456.313 205.164 455.923C205.744 455.523 206.449 455.323 207.279 455.323C209.189 455.323 210.144 456.258 210.144 458.128V463.303H208.899V462.313C208.299 463.063 207.484 463.438 206.454 463.438ZM206.574 462.448C207.254 462.448 207.809 462.283 208.239 461.953C208.679 461.613 208.899 461.148 208.899 460.558V459.583H207.819C205.999 459.583 205.089 460.098 205.089 461.128C205.089 462.008 205.584 462.448 206.574 462.448ZM215.174 463.408C214.484 463.408 213.959 463.223 213.599 462.853C213.239 462.483 213.059 461.978 213.059 461.338V456.508H211.934V455.458H213.059V453.673H214.304V455.458H216.134V456.508H214.304V461.218C214.304 461.978 214.629 462.358 215.279 462.358C215.639 462.358 215.959 462.303 216.239 462.193V463.243C215.929 463.353 215.574 463.408 215.174 463.408ZM220.976 463.438C220.146 463.438 219.481 463.193 218.981 462.703C218.491 462.213 218.246 461.453 218.246 460.423V455.458H219.491V460.363C219.491 461.053 219.636 461.558 219.926 461.878C220.226 462.198 220.686 462.358 221.306 462.358C221.896 462.358 222.401 462.168 222.821 461.788C223.251 461.408 223.466 460.883 223.466 460.213V455.458H224.711V463.303H223.466V462.058C223.276 462.458 222.961 462.788 222.521 463.048C222.091 463.308 221.576 463.438 220.976 463.438ZM227.427 463.303V455.458H228.672V456.868C228.942 456.378 229.272 456.003 229.662 455.743C230.062 455.483 230.592 455.343 231.252 455.323V456.493C230.392 456.533 229.747 456.733 229.317 457.093C228.887 457.453 228.672 458.088 228.672 458.998V463.303H227.427ZM236.257 463.438C235.137 463.438 234.222 463.078 233.512 462.358C232.812 461.628 232.462 460.663 232.462 459.463V459.343C232.462 458.163 232.802 457.198 233.482 456.448C234.172 455.698 235.057 455.323 236.137 455.323C237.137 455.323 237.972 455.648 238.642 456.298C239.322 456.938 239.662 457.913 239.662 459.223V459.628H233.752C233.782 460.528 234.007 461.218 234.427 461.698C234.857 462.168 235.472 462.403 236.272 462.403C237.502 462.403 238.197 461.948 238.357 461.038H239.602C239.472 461.808 239.107 462.403 238.507 462.823C237.907 463.233 237.157 463.438 236.257 463.438ZM233.797 458.623H238.387C238.277 457.113 237.527 456.358 236.137 456.358C235.507 456.358 234.987 456.563 234.577 456.973C234.167 457.373 233.907 457.923 233.797 458.623Z" fill="white"/>
<path d="M133.35 511.303V500.578H136.395C137.505 500.578 138.405 500.838 139.095 501.358C139.795 501.868 140.145 502.653 140.145 503.713V503.773C140.145 504.853 139.795 505.653 139.095 506.173C138.405 506.683 137.505 506.938 136.395 506.938H134.655V511.303H133.35ZM134.655 505.903H136.485C137.245 505.903 137.825 505.723 138.225 505.363C138.635 504.993 138.84 504.463 138.84 503.773V503.713C138.84 502.323 138.055 501.628 136.485 501.628H134.655V505.903ZM142.176 511.303V503.458H143.421V504.868C143.691 504.378 144.021 504.003 144.411 503.743C144.811 503.483 145.341 503.343 146.001 503.323V504.493C145.141 504.533 144.496 504.733 144.066 505.093C143.636 505.453 143.421 506.088 143.421 506.998V511.303H142.176ZM148.045 511.303V503.458H149.29V511.303H148.045ZM149.215 501.583C149.055 501.743 148.865 501.823 148.645 501.823C148.425 501.823 148.23 501.743 148.06 501.583C147.9 501.423 147.82 501.228 147.82 500.998C147.82 500.768 147.9 500.573 148.06 500.413C148.23 500.253 148.425 500.173 148.645 500.173C148.865 500.173 149.055 500.253 149.215 500.413C149.385 500.573 149.47 500.768 149.47 500.998C149.47 501.228 149.385 501.423 149.215 501.583ZM155.294 511.438C154.184 511.438 153.264 511.078 152.534 510.358C151.814 509.628 151.454 508.663 151.454 507.463V507.343C151.454 506.163 151.819 505.198 152.549 504.448C153.289 503.698 154.194 503.323 155.264 503.323C156.164 503.323 156.929 503.548 157.559 503.998C158.189 504.438 158.559 505.128 158.669 506.068H157.439C157.259 504.928 156.534 504.358 155.264 504.358C154.534 504.358 153.929 504.633 153.449 505.183C152.979 505.723 152.744 506.443 152.744 507.343V507.463C152.744 508.403 152.974 509.128 153.434 509.638C153.904 510.148 154.529 510.403 155.309 510.403C155.899 510.403 156.404 510.238 156.824 509.908C157.254 509.568 157.499 509.093 157.559 508.483H158.714C158.634 509.343 158.274 510.053 157.634 510.613C157.004 511.163 156.224 511.438 155.294 511.438ZM160.823 511.303V503.458H162.068V511.303H160.823ZM161.993 501.583C161.833 501.743 161.643 501.823 161.423 501.823C161.203 501.823 161.008 501.743 160.838 501.583C160.678 501.423 160.598 501.228 160.598 500.998C160.598 500.768 160.678 500.573 160.838 500.413C161.008 500.253 161.203 500.173 161.423 500.173C161.643 500.173 161.833 500.253 161.993 500.413C162.163 500.573 162.248 500.768 162.248 500.998C162.248 501.228 162.163 501.423 161.993 501.583ZM164.817 511.303V503.458H166.062V504.703C166.252 504.303 166.567 503.973 167.007 503.713C167.447 503.453 167.972 503.323 168.582 503.323C169.442 503.323 170.117 503.578 170.607 504.088C171.097 504.598 171.342 505.398 171.342 506.488V511.303H170.097V506.398C170.097 505.708 169.947 505.203 169.647 504.883C169.347 504.563 168.882 504.403 168.252 504.403C167.642 504.403 167.122 504.593 166.692 504.973C166.272 505.353 166.062 505.878 166.062 506.548V511.303H164.817ZM177.116 514.168C176.026 514.168 175.186 513.943 174.596 513.493C174.016 513.053 173.671 512.473 173.561 511.753H174.836C175.016 512.663 175.771 513.118 177.101 513.118C177.901 513.118 178.521 512.918 178.961 512.518C179.401 512.128 179.621 511.523 179.621 510.703V509.563C179.381 509.973 179.016 510.323 178.526 510.613C178.036 510.903 177.516 511.048 176.966 511.048C175.936 511.048 175.081 510.698 174.401 509.998C173.731 509.298 173.396 508.408 173.396 507.328V507.223C173.396 506.133 173.741 505.213 174.431 504.463C175.121 503.703 175.996 503.323 177.056 503.323C178.216 503.323 179.071 503.788 179.621 504.718V503.458H180.866V510.778C180.856 511.888 180.511 512.728 179.831 513.298C179.151 513.878 178.246 514.168 177.116 514.168ZM177.101 510.013C177.851 510.013 178.466 509.768 178.946 509.278C179.426 508.778 179.666 508.098 179.666 507.238V507.133C179.666 506.263 179.441 505.583 178.991 505.093C178.551 504.603 177.946 504.358 177.176 504.358C176.406 504.358 175.796 504.618 175.346 505.138C174.906 505.648 174.686 506.323 174.686 507.163V507.283C174.686 508.113 174.916 508.778 175.376 509.278C175.846 509.768 176.421 510.013 177.101 510.013ZM187.846 511.303V500.578H194.116V501.643H189.151V505.438H193.021V506.503H189.151V511.303H187.846ZM198.9 511.438C197.78 511.438 196.865 511.078 196.155 510.358C195.455 509.628 195.105 508.663 195.105 507.463V507.343C195.105 506.163 195.445 505.198 196.125 504.448C196.815 503.698 197.7 503.323 198.78 503.323C199.78 503.323 200.615 503.648 201.285 504.298C201.965 504.938 202.305 505.913 202.305 507.223V507.628H196.395C196.425 508.528 196.65 509.218 197.07 509.698C197.5 510.168 198.115 510.403 198.915 510.403C200.145 510.403 200.84 509.948 201 509.038H202.245C202.115 509.808 201.75 510.403 201.15 510.823C200.55 511.233 199.8 511.438 198.9 511.438ZM196.44 506.623H201.03C200.92 505.113 200.17 504.358 198.78 504.358C198.15 504.358 197.63 504.563 197.22 504.973C196.81 505.373 196.55 505.923 196.44 506.623ZM206.454 511.438C205.684 511.438 205.054 511.248 204.564 510.868C204.084 510.478 203.844 509.898 203.844 509.128C203.844 508.288 204.214 507.673 204.954 507.283C205.704 506.893 206.644 506.698 207.774 506.698H208.899V506.128C208.899 505.498 208.769 505.048 208.509 504.778C208.249 504.498 207.819 504.358 207.219 504.358C206.139 504.358 205.539 504.828 205.419 505.768H204.174C204.254 504.928 204.584 504.313 205.164 503.923C205.744 503.523 206.449 503.323 207.279 503.323C209.189 503.323 210.144 504.258 210.144 506.128V511.303H208.899V510.313C208.299 511.063 207.484 511.438 206.454 511.438ZM206.574 510.448C207.254 510.448 207.809 510.283 208.239 509.953C208.679 509.613 208.899 509.148 208.899 508.558V507.583H207.819C205.999 507.583 205.089 508.098 205.089 509.128C205.089 510.008 205.584 510.448 206.574 510.448ZM215.174 511.408C214.484 511.408 213.959 511.223 213.599 510.853C213.239 510.483 213.059 509.978 213.059 509.338V504.508H211.934V503.458H213.059V501.673H214.304V503.458H216.134V504.508H214.304V509.218C214.304 509.978 214.629 510.358 215.279 510.358C215.639 510.358 215.959 510.303 216.239 510.193V511.243C215.929 511.353 215.574 511.408 215.174 511.408ZM220.976 511.438C220.146 511.438 219.481 511.193 218.981 510.703C218.491 510.213 218.246 509.453 218.246 508.423V503.458H219.491V508.363C219.491 509.053 219.636 509.558 219.926 509.878C220.226 510.198 220.686 510.358 221.306 510.358C221.896 510.358 222.401 510.168 222.821 509.788C223.251 509.408 223.466 508.883 223.466 508.213V503.458H224.711V511.303H223.466V510.058C223.276 510.458 222.961 510.788 222.521 511.048C222.091 511.308 221.576 511.438 220.976 511.438ZM227.427 511.303V503.458H228.672V504.868C228.942 504.378 229.272 504.003 229.662 503.743C230.062 503.483 230.592 503.343 231.252 503.323V504.493C230.392 504.533 229.747 504.733 229.317 505.093C228.887 505.453 228.672 506.088 228.672 506.998V511.303H227.427ZM236.257 511.438C235.137 511.438 234.222 511.078 233.512 510.358C232.812 509.628 232.462 508.663 232.462 507.463V507.343C232.462 506.163 232.802 505.198 233.482 504.448C234.172 503.698 235.057 503.323 236.137 503.323C237.137 503.323 237.972 503.648 238.642 504.298C239.322 504.938 239.662 505.913 239.662 507.223V507.628H233.752C233.782 508.528 234.007 509.218 234.427 509.698C234.857 510.168 235.472 510.403 236.272 510.403C237.502 510.403 238.197 509.948 238.357 509.038H239.602C239.472 509.808 239.107 510.403 238.507 510.823C237.907 511.233 237.157 511.438 236.257 511.438ZM233.797 506.623H238.387C238.277 505.113 237.527 504.358 236.137 504.358C235.507 504.358 234.987 504.563 234.577 504.973C234.167 505.373 233.907 505.923 233.797 506.623Z" fill="white"/>
</g>
<rect x="59" y="560.303" width="255" height="56" rx="28" fill="white"/>
<g clip-path="url(#clip8_67_6777)">
<path d="M142.68 593.043C144.253 593.043 145.5 592.503 146.42 591.423C147.353 590.343 147.82 588.93 147.82 587.183V587.023C147.82 585.357 147.353 583.977 146.42 582.883C145.5 581.777 144.24 581.223 142.64 581.223C141.013 581.223 139.733 581.763 138.8 582.843C137.867 583.923 137.4 585.33 137.4 587.063V587.223C137.4 588.93 137.9 590.33 138.9 591.423C139.913 592.503 141.173 593.043 142.68 593.043ZM142.68 594.483C140.6 594.483 138.9 593.79 137.58 592.403C136.26 591.003 135.6 589.283 135.6 587.243V587.083C135.6 585.017 136.253 583.29 137.56 581.903C138.88 580.517 140.573 579.823 142.64 579.823C144.707 579.823 146.387 580.517 147.68 581.903C148.973 583.277 149.62 584.99 149.62 587.043V587.203C149.62 589.257 148.973 590.983 147.68 592.383C146.387 593.783 144.72 594.483 142.68 594.483ZM152.591 594.303V583.843H154.251V585.723C154.611 585.07 155.051 584.57 155.571 584.223C156.104 583.877 156.811 583.69 157.691 583.663V585.223C156.544 585.277 155.684 585.543 155.111 586.023C154.538 586.503 154.251 587.35 154.251 588.563V594.303H152.591ZM163.957 594.483C162.557 594.483 161.417 594.017 160.537 593.083C159.671 592.15 159.237 590.883 159.237 589.283V589.123C159.237 587.523 159.691 586.217 160.597 585.203C161.504 584.177 162.677 583.663 164.117 583.663C165.664 583.663 166.804 584.283 167.537 585.523V578.843H169.198V594.303H167.537V592.503C167.217 593.037 166.724 593.503 166.057 593.903C165.391 594.29 164.691 594.483 163.957 594.483ZM164.138 593.103C165.164 593.103 165.997 592.77 166.638 592.103C167.278 591.423 167.598 590.437 167.598 589.143V588.983C167.598 587.677 167.304 586.697 166.718 586.043C166.144 585.377 165.331 585.043 164.278 585.043C163.237 585.043 162.424 585.397 161.837 586.103C161.251 586.797 160.957 587.777 160.957 589.043V589.203C160.957 590.47 161.251 591.437 161.837 592.103C162.437 592.77 163.204 593.103 164.138 593.103ZM177.037 594.483C175.543 594.483 174.323 594.003 173.377 593.043C172.443 592.07 171.977 590.783 171.977 589.183V589.023C171.977 587.45 172.43 586.163 173.337 585.163C174.257 584.163 175.437 583.663 176.877 583.663C178.21 583.663 179.323 584.097 180.217 584.963C181.123 585.817 181.577 587.117 181.577 588.863V589.403H173.697C173.737 590.603 174.037 591.523 174.597 592.163C175.17 592.79 175.99 593.103 177.057 593.103C178.697 593.103 179.623 592.497 179.837 591.283H181.497C181.323 592.31 180.837 593.103 180.037 593.663C179.237 594.21 178.237 594.483 177.037 594.483ZM173.757 588.063H179.877C179.73 586.05 178.73 585.043 176.877 585.043C176.037 585.043 175.343 585.317 174.797 585.863C174.25 586.397 173.903 587.13 173.757 588.063ZM184.324 594.303V583.843H185.984V585.723C186.344 585.07 186.784 584.57 187.304 584.223C187.837 583.877 188.544 583.69 189.424 583.663V585.223C188.277 585.277 187.417 585.543 186.844 586.023C186.27 586.503 185.984 587.35 185.984 588.563V594.303H184.324ZM197.656 594.303V580.003H199.916L206.876 591.823V580.003H208.536V594.303H206.536L199.316 582.043V594.303H197.656ZM216.569 593.103C217.609 593.103 218.436 592.743 219.049 592.023C219.676 591.303 219.989 590.35 219.989 589.163V589.023C219.989 587.81 219.676 586.843 219.049 586.123C218.436 585.403 217.609 585.043 216.569 585.043C215.516 585.043 214.682 585.403 214.069 586.123C213.456 586.843 213.149 587.803 213.149 589.003V589.163C213.149 590.363 213.456 591.323 214.069 592.043C214.682 592.75 215.516 593.103 216.569 593.103ZM216.549 594.483C215.069 594.483 213.842 593.983 212.869 592.983C211.909 591.97 211.429 590.697 211.429 589.163V589.003C211.429 587.443 211.909 586.163 212.869 585.163C213.842 584.163 215.076 583.663 216.569 583.663C218.062 583.663 219.289 584.163 220.249 585.163C221.222 586.15 221.709 587.423 221.709 588.983V589.143C221.709 590.717 221.222 592.003 220.249 593.003C219.276 593.99 218.042 594.483 216.549 594.483ZM226.384 594.303L223.164 583.843H224.964L227.404 592.263L229.944 583.843H231.384L233.764 592.263L236.224 583.843H237.924L234.664 594.303H232.824L230.644 586.463L228.204 594.303H226.384Z" fill="#2091F9"/>
</g>
<rect x="19.5" y="6.80322" width="334" height="692" rx="9.5" stroke="#DEDEDE"/>
</g>
<defs>
<filter id="filter0_d_67_6777" x="0" y="0.303223" width="373" height="731" filterUnits="userSpaceOnUse" color-interpolation-filters="sRGB">
<feFlood flood-opacity="0" result="BackgroundImageFix"/>
<feColorMatrix in="SourceAlpha" type="matrix" values="0 0 0 0 0 0 0 0 0 0 0 0 0 0 0 0 0 0 127 0" result="hardAlpha"/>
<feOffset dy="13"/>
<feGaussianBlur stdDeviation="9.5"/>
<feColorMatrix type="matrix" values="0 0 0 0 0 0 0 0 0 0 0 0 0 0 0 0 0 0 0.07 0"/>
<feBlend mode="normal" in2="BackgroundImageFix" result="effect1_dropShadow_67_6777"/>
<feBlend mode="normal" in="SourceGraphic" in2="effect1_dropShadow_67_6777" result="shape"/>
</filter>
<clipPath id="clip0_67_6777">
<rect width="148" height="80" fill="white" transform="translate(112.5 89.3032)"/>
</clipPath>
<clipPath id="clip1_67_6777">
<rect width="148" height="46" fill="white" transform="translate(112.5 123.303)"/>
</clipPath>
<clipPath id="clip2_67_6777">
<rect width="186" height="61" fill="white" transform="translate(93.5 199.303)"/>
</clipPath>
<clipPath id="clip3_67_6777">
<rect width="108" height="104" fill="white" transform="translate(93.5 177.803)"/>
</clipPath>
<clipPath id="clip4_67_6777">
<rect width="78" height="51" fill="white" transform="translate(201.5 199.303)"/>
</clipPath>
<clipPath id="clip5_67_6777">
<rect width="13" height="28" fill="white" transform="translate(201.5 199.303)"/>
</clipPath>
<clipPath id="clip6_67_6777">
<rect width="78" height="23" fill="white" transform="translate(201.5 227.303)"/>
</clipPath>
<clipPath id="clip7_67_6777">
<rect width="255" height="240" fill="white" transform="translate(59 290.303)"/>
</clipPath>
<clipPath id="clip8_67_6777">
<rect width="104" height="20" fill="white" transform="translate(134.5 578.303)"/>
</clipPath>
</defs>
</svg>
